<?xml version="1.0" standalone="no"?>
<!DOCTYPE svg PUBLIC "-//W3C//DTD SVG 1.1//EN" "http://www.w3.org/Graphics/SVG/1.1/DTD/svg11.dtd" >
<svg xmlns="http://www.w3.org/2000/svg" xmlns:xlink="http://www.w3.org/1999/xlink" version="1.1">
<metadata></metadata>
<defs>
<font id="matriceextrabold" horiz-adv-x="2072" >
<font-face units-per-em="2048" ascent="1536" descent="-512" />
<missing-glyph horiz-adv-x="696" />
<glyph horiz-adv-x="0" />
<glyph unicode="&#xd;" horiz-adv-x="1210" d="M61 608l338 338h207l-252 -252v-12h643v481h152v-631h-795v-10l252 -254h-207z" />
<glyph horiz-adv-x="1210" d="M61 608l338 338h207l-252 -252v-12h643v481h152v-631h-795v-10l252 -254h-207z" />
<glyph unicode=" "  horiz-adv-x="696" />
<glyph unicode="&#x09;" horiz-adv-x="696" />
<glyph unicode="&#xa0;" horiz-adv-x="696" />
<glyph unicode="!" horiz-adv-x="673" d="M61 1434h551l-67 -906h-400zM73 204q0 104 72 164t191 60l2 1q122 0 194 -60t72 -166q-2 -107 -73 -165t-193 -58q-120 0 -193 59q-72 59 -72 165z" />
<glyph unicode="&#x22;" horiz-adv-x="1019" d="M61 1434h388l-29 -621h-330zM571 1434h387l-28 -621h-330z" />
<glyph unicode="#" horiz-adv-x="2084" d="M61 344v240h297l35 264h-225v242h256l45 344h494l-45 -344h346l45 344h493l-45 -344h266v-242h-297l-34 -264h209v-240h-240l-45 -344h-494l45 344h-346l-45 -344h-493l45 344h-267zM852 584h346l35 264h-346z" />
<glyph unicode="$" horiz-adv-x="1929" d="M59 124v379q163 -72 401 -133q234 -60 468 -60q436 0 436 109q0 57 -90 78q-87 20 -350 40q-136 11 -231 21q-87 10 -202 32q-105 20 -175 53q-69 32 -128 78q-60 47 -87 114t-27 156q0 420 751 457v231h279v-229q152 -8 311 -33q166 -27 230 -43q17 -4 40.5 -10 t36.5 -9.5t21 -5.5v-357q-360 129 -760 129q-397 0 -397 -94q0 -51 91 -69q88 -17 337 -34l-3 -7q147 -12 246 -24q100 -12 206 -33t173 -53t122 -78q56 -47 81 -112q26 -67 26 -154q0 -215 -195 -342q-195 -128 -568 -144v-230h-279v236q-197 17 -415 58q-217 41 -349 83z " />
<glyph unicode="%" horiz-adv-x="2211" d="M58 1050q0 174 122 287t305 113l-2 -2q183 0 304 -112q122 -113 122 -286q0 -175 -121 -287q-122 -113 -304 -113t-304 113t-122 287zM315 1048q0 -67 47 -111t119 -44t119 44t47 111t-47 111t-118 44t-118 -44t-47 -111h-2zM518 -4l787 1434h379l-787 -1434h-379z M1295 378q0 174 122 287t305 113l-1 -4q184 0 306 -112q123 -112 123 -286t-123 -286q-122 -112 -306 -112q-182 0 -304 113t-122 287zM1551 371q0 -67 47 -111t117 -44h-1q72 0 119 44t47 111t-47 112t-119 45q-70 0 -117 -45q-46 -45 -46 -112z" />
<glyph unicode="&#x26;" horiz-adv-x="2119" d="M60 487q0 185 117 284q118 100 295 122l4 8q-39 89 -39 165q0 104 57 183q56 79 150 121q93 42 197 63q103 21 216 21q123 0 288 -18t225 -30v-315q-186 61 -366 61q-293 0 -293 -152q0 -135 217 -333q98 -90 240 -177h8q52 98 54 216q0 96 -41 180h458q31 -61 31 -177 q0 -185 -100 -342l4 -9l-1 -1q147 -5 276 36v-372q-111 -43 -203 -43q-163 0 -397 106h-4q-222 -106 -508 -106q-245 0 -445 56q-197 55 -319 174q-121 118 -121 279zM511 522q0 -127 136 -199q137 -72 298 -72v-3q85 0 156 18v11q-121 78 -230 168q-165 135 -260 246 q-4 0 -6 2q-94 -58 -94 -171z" />
<glyph unicode="'" horiz-adv-x="509" d="M61 1434h388l-29 -621h-330z" />
<glyph unicode="(" horiz-adv-x="985" d="M61 719q0 331 186 555t522 318l154 -305q-175 -70 -271 -216q-96 -145 -96 -353q0 -207 96 -354q95 -146 272 -217l-155 -304q-336 96 -522 321t-186 555z" />
<glyph unicode=")" horiz-adv-x="985" d="M60 144q177 71 272 217q96 147 96 354q0 206 -95 354q-94 147 -272 216l154 305q336 -94 522 -318t186 -555t-186 -554t-522 -321l-154 305z" />
<glyph unicode="*" horiz-adv-x="1251" d="M61 694l326 162v12l-326 162l138 236l303 -199l8 4l-21 363h273l-21 -363l9 -4l303 199l137 -236l-326 -162v-12l326 -162l-137 -235l-303 198l-9 -4l21 -364l-273 2l21 362l-8 4l-303 -198z" />
<glyph unicode="+" horiz-adv-x="1542" d="M61 551v332h525v413h370v-413h525v-332h-525v-414h-370v414h-525z" />
<glyph unicode="," horiz-adv-x="677" d="M63 214q0 109 77 172q76 63 200 63l1 -1q128 0 202 -73q75 -73 75 -201q0 -163 -95 -297q-95 -133 -216 -180l-129 158q45 22 78 53q31 30 39 50l8 21q-97 1 -170 65q-72 63 -70 170z" />
<glyph unicode="-" horiz-adv-x="1257" d="M61 551v330h1135v-330h-1135z" />
<glyph unicode="." horiz-adv-x="679" d="M62 216q0 111 77 174t201 63l1 1q125 0 201 -63q77 -63 77 -174t-78 -174t-201 -63q-124 2 -201 63q-77 62 -77 173z" />
<glyph unicode="/" horiz-adv-x="1323" d="M27 0l786 1434h483l-786 -1434h-483z" />
<glyph unicode="0" horiz-adv-x="1980" d="M90 715q0 341 237 539t662 198l-2 -2q425 0 663 -198q239 -198 239 -538t-238 -538q-239 -198 -663 -198t-661 198t-237 539zM587 716q0 -194 111 -301q110 -106 291 -106v-2q180 0 290 107t110 301t-110 301t-290 107q-181 0 -291 -106q-111 -107 -111 -301z" />
<glyph unicode="1" horiz-adv-x="1026" d="M26 844v303q150 0 247 75t102 212h466v-1434h-492v887h-8q-133 -43 -315 -43z" />
<glyph unicode="2" horiz-adv-x="1740" d="M116 -3q-72 316 92 545t564 296q248 40 328 80q70 34 69 81q0 121 -387 121q-134 0 -270 -21q-139 -21 -204 -43l-69 -21l2 350q68 17 282 43q206 25 323 25q404 0 606 -109q203 -110 203 -348q0 -76 -27 -138q-28 -63 -82 -107q-56 -46 -110 -77t-143 -57 q-86 -25 -146 -39q-49 -12 -154 -31q-183 -34 -282 -83q-97 -48 -99 -140h1067l3 -327h-1566z" />
<glyph unicode="3" horiz-adv-x="1744" d="M77 28v329q79 -28 258 -50q181 -23 318 -24q255 0 384 47q128 47 128 126q0 152 -417 162q-249 6 -424 -13v262h350q424 4 424 150q0 72 -103 102t-330 30q-116 0 -281 -19q-173 -20 -243 -37v317q83 14 270 29q192 15 311 15q864 0 864 -369q0 -103 -79 -186 q-80 -85 -219 -131v-10v-3q373 -100 373 -346q-1 -432 -942 -432q-145 0 -351 15t-291 36z" />
<glyph unicode="4" horiz-adv-x="1902" d="M8 260v283l1106 891h459v-846h268v-328h-268v-260h-494v260h-1071zM524 588h555v424h-8l-547 -414v-10z" />
<glyph unicode="5" horiz-adv-x="1781" d="M60 69v350q17 -8 115 -33q95 -24 277 -52q178 -27 333 -27q186 0 312 46q128 47 128 130q0 162 -432 162q-127 0 -309 -21q-183 -21 -210 -34l-190 94v750h1530v-328h-1105v-256l6 -6q231 111 579 110q168 0 303 -46q136 -46 229 -156t93 -270q0 -238 -219 -370 t-641 -132q-131 0 -327 21t-330 42q-131 21 -142 26z" />
<glyph unicode="6" horiz-adv-x="1968" d="M88 700q0 226 135 398t369 264q233 91 530 91q375 0 600 -76v-340q-10 6 -72 27q-58 20 -201 46q-137 25 -290 25l-3 -1q-229 0 -378 -77q-148 -77 -171 -210l6 -6q92 50 225 80q135 30 268 30q364 0 570 -120t206 -339q0 -131 -70 -232q-71 -102 -193 -162 q-123 -60 -274 -90t-321 -30q-431 0 -684 191q-252 191 -252 531zM610 515q0 -82 107 -142t282 -60q181 0 285 56t104 144q0 90 -105 135t-285 45q-159 0 -274 -47q-114 -46 -114 -131z" />
<glyph unicode="7" horiz-adv-x="1566" d="M27 1104v330h1513v-283l-811 -1151h-557l803 1096v8h-948z" />
<glyph unicode="8" horiz-adv-x="1970" d="M82 404q0 252 393 353v10q-330 95 -330 307q0 180 228 281q229 101 611 101q386 0 613 -100q228 -100 226 -282q0 -218 -330 -306v-12q393 -100 393 -354q0 -202 -241 -311q-243 -110 -660 -110t-660 110q-241 109 -241 312zM563 462q0 -79 112 -128q114 -50 306 -50 q195 -2 306 49q113 51 113 127q0 80 -111 129q-110 49 -306 49h-1q-194 0 -307 -48q-112 -48 -112 -128zM629 1016q0 -63 99 -105t253 -42q153 0 253 41q99 40 99 102t-96 102q-96 41 -256 42v3q-159 0 -256 -41q-96 -40 -96 -102z" />
<glyph unicode="9" horiz-adv-x="1970" d="M82 941q0 130 71 233q70 102 194 162q123 60 275 90t321 30q432 0 684 -192t252 -532q0 -225 -135 -397q-135 -173 -369 -264q-233 -91 -529 -91q-374 0 -600 75v340q10 -6 72 -27t201 -45q140 -24 290 -24l-2 2q229 0 378 77q149 76 171 210l-6 6q-90 -50 -225 -81 q-133 -31 -268 -31q-365 0 -570 120t-205 339zM575 921q0 -90 105 -135t285 -45l-3 -1q161 0 275 48t114 132q0 83 -106 141q-107 59 -282 59q-182 0 -285 -55t-103 -144z" />
<glyph unicode=":" horiz-adv-x="679" d="M62 943q0 111 77 174t201 63l1 -2q125 0 201 -63q77 -63 77 -174t-78 -174t-201 -63q-124 1 -201 65q-77 63 -77 174zM63 214q0 111 77 174q76 63 201 63l1 1q124 0 201 -63t77 -174t-78 -174t-201 -63q-125 2 -201 63q-77 62 -77 173z" />
<glyph unicode=";" horiz-adv-x="679" d="M63 214q0 109 77 172q76 63 200 63l1 -1q128 0 202 -73q75 -73 75 -201q0 -163 -95 -297q-95 -133 -216 -180l-129 158q45 22 78 53q31 30 39 50l8 21q-97 1 -170 65q-72 63 -70 170zM63 942q0 111 77 174q76 63 201 63l1 -2q124 0 201 -63t77 -174t-78 -174t-201 -63 q-124 1 -201 65q-77 63 -77 174z" />
<glyph unicode="&#x3c;" horiz-adv-x="1255" d="M61 492v450l1133 350v-428l-696 -141v-12l696 -142v-428z" />
<glyph unicode="=" horiz-adv-x="1548" d="M61 279v335h1426v-335h-1426zM61 823v332h1426v-332h-1426z" />
<glyph unicode="&#x3e;" horiz-adv-x="1255" d="M61 141v428l697 142v12l-697 141v428l1133 -350v-450z" />
<glyph unicode="?" horiz-adv-x="1501" d="M62 1043v322q34 13 75 26q48 15 204 39t318 24q361 0 570 -106q210 -106 210 -294q0 -162 -126 -256q-125 -94 -392 -124l-27 -152h-397l-54 314q301 0 408 36t107 122q0 66 -78 109q-77 43 -220 43q-145 0 -292 -25q-150 -25 -228 -51zM431 204q0 106 72 165 q73 59 193 59v1q121 0 193 -60t72 -166q0 -107 -72 -165q-71 -58 -193 -58q-120 0 -193 59q-72 59 -72 165z" />
<glyph unicode="@" horiz-adv-x="2351" d="M92 570q18 422 318 653q301 231 796 230v-2q498 0 783 -234t266 -654q-11 -223 -120 -339q-109 -115 -357 -115q-168 0 -258 44q-89 44 -137 126h-8q-55 -73 -153 -123q-97 -49 -216 -49q-217 0 -346 123t-120 335t151 336t363 124q108 0 202 -47q93 -46 138 -125h10 l37 129h350l-27 -514q-5 -180 158 -182q92 0 129 75t45 204q17 348 -220 543t-676 195q-437 2 -684 -190q-248 -192 -261 -544q-16 -348 218 -543t671 -195q171 0 336 31q169 32 260 72v-166q-111 -40 -281 -63q-166 -22 -321 -22q-495 0 -781 233q-285 232 -265 654z M922 570q-4 -90 57 -141t161 -51t174 53t75 138l-2 -1q5 86 -63 140t-165 54t-165 -51t-72 -141z" />
<glyph unicode="A" horiz-adv-x="2060" d="M4 0l674 1434h702l676 -1434h-528l-109 240h-778l-109 -240h-528zM774 551h510l-250 547h-10z" />
<glyph unicode="B" horiz-adv-x="2095" d="M184 0v1434h1139q617 0 619 -369q0 -239 -261 -322v-10q330 -72 330 -352q0 -381 -618 -381h-1209zM676 857h514q110 0 171 36q62 36 62 103q0 66 -63 102t-169 36h-514zM678 301h584l-1 1q107 0 170 39t63 114t-63 114t-169 39h-584v-307z" />
<glyph unicode="C" horiz-adv-x="1896" d="M88 713q0 348 269 543t809 195q390 0 639 -92v-399q-63 66 -244 114t-345 48q-290 0 -462 -101q-171 -101 -171 -306q0 -201 172 -304t462 -103q177 0 368 50q190 50 254 123l2 -403l-1 -6q-109 -43 -306 -70q-195 -27 -369 -27q-543 0 -810 195t-267 543z" />
<glyph unicode="D" horiz-adv-x="2136" d="M184 0v1434l941 2q443 0 681 -192q239 -192 239 -526t-238 -526q-239 -192 -681 -192h-942zM678 331h424q209 0 326 99t117 288t-117 288t-326 99h-424v-774z" />
<glyph unicode="E" horiz-adv-x="1996" d="M184 0v1434h1710v-330h-1216v-238h1073v-286h-1073v-250h1243v-330h-1737z" />
<glyph unicode="F" horiz-adv-x="1931" d="M184 0v1434h1710v-330h-1216v-342h1079v-316h-1079v-446h-494z" />
<glyph unicode="G" horiz-adv-x="2000" d="M88 717q0 348 269 543t809 195q331 0 652 -94v-342q-239 106 -602 106q-296 0 -463 -102q-166 -102 -166 -305q0 -205 164 -310q163 -105 459 -105q103 0 217 37v223h-426v236h918v-669q-119 -58 -348 -104q-233 -47 -405 -47q-542 0 -810 195t-268 543z" />
<glyph unicode="H" horiz-adv-x="2146" d="M184 0v1434h494v-535h790v535h494v-1434h-494v535h-790v-535h-494z" />
<glyph unicode="I" horiz-adv-x="862" d="M184 0v1434h494v-1434h-494z" />
<glyph unicode="J" horiz-adv-x="724" d="M-262 -125q165 0 250 50q84 49 84 177l-1 1332h495v-1317q0 -115 -24 -201t-54 -144t-98 -96q-64 -36 -120 -58q-51 -20 -158 -31q-105 -11 -168 -12q-42 -1 -196 -1h-10v301z" />
<glyph unicode="K" horiz-adv-x="2088" d="M184 0v1434h494v-576h8l674 576h670l-691 -600l758 -834h-614l-516 549l-289 -256v-293h-494z" />
<glyph unicode="L" horiz-adv-x="1853" d="M184 0v1434h494v-1104h1163v-330h-1657z" />
<glyph unicode="M" horiz-adv-x="2637" d="M184 0v1434h645l486 -942h10l483 942h646v-1434h-486v838h-12l-432 -838h-408l-434 838h-12v-838h-486z" />
<glyph unicode="N" horiz-adv-x="2146" d="M184 0v1434h482l815 -797h8v797h473v-1434h-487l-807 793h-9v-793h-475z" />
<glyph unicode="O" d="M89 716q0 342 246 540t701 198h-1q454 0 700 -198t246 -540t-246 -540t-700 -198t-700 198t-246 540zM575 717q0 -198 122 -303q121 -105 339 -105q214 0 336 105t122 303t-122 303t-336 105q-218 0 -339 -105q-122 -105 -122 -303z" />
<glyph unicode="P" horiz-adv-x="2009" d="M183 -1v1434h1004q408 0 589 -133t181 -391t-181 -391t-588 -133h-510l-1 -386h-494zM676 714h508q132 0 206 49q75 49 75 144q0 97 -73 146q-74 50 -207 50h-508z" />
<glyph unicode="Q" d="M90 718q0 342 246 540t701 198q454 0 700 -198t246 -540q0 -195 -117 -351t-316 -238l2 -13l303 -45l-81 -334q-806 211 -1077 276q-295 70 -451 252q-156 181 -156 453zM575 715q0 -198 122 -303q121 -105 341 -105q218 0 339 105q122 105 122 303t-122 303 q-121 105 -339 105q-220 0 -341 -105q-122 -105 -122 -303z" />
<glyph unicode="R" horiz-adv-x="2084" d="M184 -1v1434h1002q408 0 590 -110t182 -320q0 -258 -293 -365v-12q156 -27 213 -107q58 -80 80 -249l-3 -2q5 -34 12 -93q9 -69 10 -76q3 -16 14 -47q11 -28 27 -54h-506q-44 56 -63 273q-12 115 -78 151t-247 36h-446v-459h-494zM675 756h508l-1 2q130 0 206 44 q75 44 75 129t-75 129q-76 44 -205 44h-508v-348z" />
<glyph unicode="S" horiz-adv-x="1929" d="M59 123v365q150 -68 397 -123q245 -55 472 -55q436 0 436 109q0 57 -90 78q-87 20 -350 40q-136 11 -231 21q-87 10 -202 32q-105 20 -175 53q-69 32 -128 78q-60 47 -87 114t-27 156q0 461 911 461q178 0 363 -25t281 -47q94 -21 114 -31v-346q-43 13 -123 36 q-76 22 -268 52q-189 30 -369 30q-397 0 -397 -94q0 -51 91 -69q88 -17 337 -34l-2 -6q147 -12 246 -24q100 -12 206 -33t173 -53t122 -78q56 -47 81 -112q26 -67 26 -154q0 -230 -223 -360t-648 -130q-212 0 -485 47q-269 46 -451 102z" />
<glyph unicode="T" horiz-adv-x="1693" d="M10 1104v330h1673v-330h-589v-1104h-494v1104h-590z" />
<glyph unicode="U" horiz-adv-x="2095" d="M158 669v764h493v-738q0 -190 104 -289q103 -99 293 -99q186 0 290 99t104 289v738h493v-758q0 -325 -231 -510q-232 -185 -657 -185l-2 -1q-424 0 -655 183q-230 183 -232 507z" />
<glyph unicode="V" horiz-adv-x="2052" d="M4 1434h537l479 -1051h12l479 1051h537l-672 -1434h-702z" />
<glyph unicode="W" horiz-adv-x="2682" d="M31 1434h522l264 -902h10l275 902h481l272 -902h11l264 902h522l-420 -1434h-630l-254 795h-13l-254 -795h-630z" />
<glyph unicode="X" horiz-adv-x="1955" d="M10 0l629 739v6l-600 689h555l381 -441h8l379 441h555l-600 -689v-6l629 -739h-555l-410 485h-8l-408 -485h-555z" />
<glyph unicode="Y" d="M8 1434h543l481 -578h8l482 578h542l-782 -940v-494h-494v496z" />
<glyph unicode="Z" horiz-adv-x="1849" d="M51 0v293l926 801v10h-871v330h1641v-293l-940 -801v-10h987v-330h-1743z" />
<glyph unicode="[" horiz-adv-x="1028" d="M184 0v1434h783v-330h-289v-774h289v-330h-783z" />
<glyph unicode="\" horiz-adv-x="1323" d="M27 1434h483l786 -1434h-483z" />
<glyph unicode="]" horiz-adv-x="1028" d="M61 0v330h289v774h-289v330h783v-1434h-783z" />
<glyph unicode="^" horiz-adv-x="1300" d="M61 401l312 1033h555l311 -1033h-420l-164 652h-10l-164 -652h-420z" />
<glyph unicode="_" horiz-adv-x="1308" d="M-35 0h1378v-330h-1378v330z" />
<glyph unicode="`" horiz-adv-x="901" d="M61 1591h525l254 -297h-316z" />
<glyph unicode="a" horiz-adv-x="1699" d="M55 327q0 166 160 253q161 87 436 87q231 0 414 -60v10q0 83 -87 135q-88 53 -271 53q-149 0 -315 -34q-169 -35 -233 -72v330q66 27 273 54t348 27h-2q776 0 776 -440v-670h-413l-39 145h-10q-134 -165 -498 -165h-4q-240 0 -388 92q-147 92 -147 255zM600 253 q62 -31 161 -31q156 0 228 57t72 149l2 8q-116 43 -244 43q-282 0 -282 -128q0 -67 63 -98z" />
<glyph unicode="b" horiz-adv-x="1871" d="M154 0v1495h481v-575h10q169 190 506 190q303 0 472 -151t169 -414h-1q0 -263 -169 -414t-472 -151q-350 0 -519 208h-10l-37 -188h-430zM640 544q0 -124 92 -195q91 -70 242 -70q152 0 243 69t91 197v-2q0 128 -91 197t-243 69t-243 -69t-91 -196z" />
<glyph unicode="c" horiz-adv-x="1564" d="M81 538q0 268 218 418q217 150 650 150q127 0 289 -15q159 -15 238 -41v-344q-70 39 -210 69t-258 30q-210 0 -326 -67q-117 -68 -117 -196t118 -195t325 -67q144 0 296 32q151 32 209 69l1 -348q-76 -25 -252 -42q-170 -16 -312 -16q-434 0 -651 147q-218 147 -218 416z " />
<glyph unicode="d" horiz-adv-x="1871" d="M79 540q0 263 169 414q170 152 472 152q337 0 506 -190h10v575h481v-1495h-430l-37 188h-10q-169 -207 -516 -207h-3q-302 0 -472 152q-169 151 -169 414zM563 543q0 -127 91 -196q92 -69 243 -69q150 0 242 71t92 195q0 128 -91 197q-92 69 -243 69t-243 -69 q-91 -69 -91 -196v-2z" />
<glyph unicode="e" horiz-adv-x="1718" d="M81 545q0 258 207 411t577 153q373 0 579 -147t207 -409l-2 -104h-1053q33 -91 140 -129q105 -37 300 -37q307 0 535 77v-315q-111 -31 -309 -48q-204 -17 -364 -17q-388 0 -602 148q-215 149 -215 417zM594 631h544q-20 188 -275 188q-101 0 -172 -49q-72 -49 -97 -139z " />
<glyph unicode="f" horiz-adv-x="1351" d="M12 807v283h336v63q0 401 760 401q144 0 231 -4v-276q-26 2 -149 2l-1 -1q-185 0 -273 -41t-89 -144h512v-283h-512v-807h-479v807h-336z" />
<glyph unicode="g" horiz-adv-x="1871" d="M82 547q0 263 167 413t471 150q356 0 525 -213h10l33 193l431 -3v-1022q0 -251 -222 -373q-221 -121 -609 -121q-186 0 -397 24q-208 24 -310 53v334q252 -101 635 -103q212 0 324 68q111 67 111 195v37h-10q-166 -200 -517 -200h-3q-303 0 -471 153t-168 415zM564 544 q0 -128 91 -198t243 -70v1q153 0 244 71q90 70 90 198q0 125 -90 194t-244 69q-152 0 -243 -69t-91 -196z" />
<glyph unicode="h" horiz-adv-x="1929" d="M154 0v1495h481v-563h10q173 182 510 182l-2 1q302 0 466 -148q165 -149 165 -411v-555h-483v555q0 128 -90 194t-243 66t-243 -66t-90 -189v-561h-481z" />
<glyph unicode="i" horiz-adv-x="817" d="M128 1439q0 107 72 165q73 59 193 59v-1q121 0 193 -60t72 -166t-72 -165q-71 -58 -193 -58q-121 0 -193 60t-72 166zM154 0v1090h481v-1090h-481z" />
<glyph unicode="j" horiz-adv-x="825" d="M-177 -123q153 0 238 47q84 47 84 164v1002l482 4v-990q0 -113 -22 -195q-23 -84 -51 -141t-94 -94q-67 -38 -115 -57q-50 -20 -151 -30q-102 -11 -165 -12q-42 -1 -190 -1h-16v303zM107 1447q0 97 74 162t204 65q132 0 206 -64q75 -64 75 -162v-1q0 -98 -75 -164 t-206 -66t-204 66q-74 66 -74 164z" />
<glyph unicode="k" horiz-adv-x="1818" d="M154 0v1495h481v-827l545 422h606l-569 -422l612 -668h-594l-369 406l-231 -181v-225h-481z" />
<glyph unicode="l" horiz-adv-x="800" d="M160 0v1495h481v-1495h-481z" />
<glyph unicode="m" horiz-adv-x="2811" d="M155 0v1090h430l30 -183h11q131 203 459 203q365 0 494 -231h10q145 231 510 231v2q569 0 570 -555v-555h-484v551q0 122 -66 191t-203 69q-127 0 -196 -72t-69 -189v-551h-484v551q0 123 -67 191q-68 69 -201 69q-129 0 -196 -69q-67 -68 -67 -184v-559h-481z" />
<glyph unicode="n" horiz-adv-x="1929" d="M154 0v1090h430l30 -181h11q168 201 530 201l-3 1q302 0 466 -148q165 -149 165 -411v-551h-483v551q0 128 -90 194t-243 66t-242 -66t-90 -189v-557h-481z" />
<glyph unicode="o" horiz-adv-x="1746" d="M79 542q0 264 210 414t585 150q376 0 584 -150q209 -150 209 -414t-209 -414q-208 -150 -583 -150t-585 150t-210 414h-1zM560 544q0 -127 86 -196t225 -69q141 0 227 69t86 197v-3q0 130 -85 197q-86 68 -228 68q-140 0 -225 -67q-86 -68 -86 -196z" />
<glyph unicode="p" horiz-adv-x="1871" d="M154 -406v1496h430l37 -187h10q168 207 520 207q305 0 473 -150t168 -412t-169 -415t-472 -153h1q-334 0 -507 192h-10v-578h-481zM640 545q0 -128 91 -198t243 -70q151 0 243 71t92 198t-91 196q-92 69 -243 69l-1 -3q-152 0 -243 -69t-91 -194z" />
<glyph unicode="q" horiz-adv-x="1871" d="M81 548q0 263 168 413t473 150q352 0 520 -207h10l37 187h430v-1496h-481v578h-10q-172 -192 -507 -192l1 -1q-302 0 -472 153q-169 153 -169 415zM563 547q0 -128 91 -198t243 -70q151 0 243 71q91 70 91 198q0 125 -91 194q-92 69 -243 69v1q-151 0 -243 -69 q-91 -69 -91 -196z" />
<glyph unicode="r" horiz-adv-x="1177" d="M154 0v1090h430l34 -218h11v1q154 238 525 238v-375q-31 9 -72 9q-33 0 -72 -6q-88 -13 -171 -39q-82 -25 -142 -91q-61 -67 -62 -156v-453h-481z" />
<glyph unicode="s" horiz-adv-x="1548" d="M54 66v299q332 -111 729 -111q123 0 182 14q57 14 57 50q0 39 -63 54q-66 16 -223 23q-682 37 -682 354q0 167 188 265q187 97 530 97q369 0 588 -55v-285q-254 68 -541 68q-297 0 -297 -60q0 -55 269 -66q24 -2 26 -2q331 -17 504 -97q174 -81 174 -251q0 -85 -31 -148 q-32 -65 -108 -120t-220 -85t-351 -30q-358 0 -731 86z" />
<glyph unicode="t" horiz-adv-x="1363" d="M12 807v283h340v344h482v-344h473v-283h-473v-275q0 -135 72 -192t257 -57l188 16v-303q-124 -16 -231 -16q-161 0 -264 10q-110 11 -210 43q-102 33 -162 90t-96 155t-36 234v295h-340z" />
<glyph unicode="u" horiz-adv-x="1929" d="M145 537v551h484v-551q0 -127 90 -193t243 -66q154 0 242 66t90 188v558h482v-1090h-430l-31 180h-10q-170 -200 -531 -200l2 -2q-302 0 -466 148q-165 148 -165 411z" />
<glyph unicode="v" horiz-adv-x="1798" d="M14 1090h539l340 -713h12l340 713h539l-563 -1090h-641z" />
<glyph unicode="w" horiz-adv-x="2439" d="M33 1090h497l220 -674h10l241 674h437l241 -674h11l219 674h497l-393 -1090h-567l-221 567h-11l-221 -567h-567z" />
<glyph unicode="x" horiz-adv-x="1796" d="M20 0l519 563v8l-480 519h559l275 -324h10l275 324h559l-480 -521v-8l519 -561h-559l-314 348h-10l-315 -348h-558z" />
<glyph unicode="y" horiz-adv-x="1789" d="M14 1090h539l365 -603q8 2 10 2l309 601h539l-826 -1496h-483l240 463z" />
<glyph unicode="z" horiz-adv-x="1587" d="M45 0v242l713 540v11h-670v297h1393v-244l-695 -539v-10h756v-297h-1497z" />
<glyph unicode="{" horiz-adv-x="1060" d="M59 589v250q110 -2 153 79q43 80 43 237q0 203 114 320t365 117q118 2 261 -42l2 -338q-1 0 -11 3t-19 5q-26 6 -66 5q-44 -2 -80 -16q-37 -15 -66 -63q-28 -47 -28 -126q0 -238 -168 -297v-12q168 -59 168 -297l-2 -1q0 -77 29 -126q28 -48 66 -63q36 -14 80 -16 q42 -2 66 3t30 6l-2 -338q-142 -43 -261 -42q-250 0 -364 117t-114 319q0 157 -43 237q-43 81 -153 79z" />
<glyph unicode="|" horiz-adv-x="759" d="M184 -115v1663h391v-1663h-391z" />
<glyph unicode="}" horiz-adv-x="1060" d="M60 1211l2 338q143 44 263 42q251 0 365 -117t114 -319q0 -157 43 -237t151 -79v-250q-109 1 -151 -79q-42 -81 -42 -237q0 -203 -115 -319q-116 -117 -364 -117q-119 -2 -263 42l-2 338q7 -2 31 -6q25 -4 67 -3q41 1 80 17q37 15 66 63q29 49 29 126l-3 -4 q0 238 168 297v12q-168 59 -168 297q0 77 -29 126q-28 48 -66 63q-39 16 -79 17q-42 2 -66 -3q-21 -4 -31 -8z" />
<glyph unicode="~" horiz-adv-x="1427" d="M59 853q78 59 196 78q119 20 224 9q105 -10 213 -39q118 -32 193 -42q77 -11 174 6q97 16 175 75l131 -356q-78 -59 -196 -78q-119 -20 -224 -9q-104 10 -214 39q-122 29 -193 39q-72 11 -171 -6t-177 -75l-129 356z" />
<glyph unicode="&#xa1;" horiz-adv-x="673" d="M61 -20l84 905h400l67 -905h-551zM69 1208q0 106 72 166t193 60q122 0 193 -58q73 -59 74 -165q0 -106 -72 -166t-193 -60l-4 -1q-119 0 -191 60t-72 164z" />
<glyph unicode="&#xa2;" horiz-adv-x="1538" d="M62 710q0 233 174 371q175 139 522 164v187h280v-185q278 -12 400 -51v-330q-72 40 -207 68q-139 29 -254 29q-208 0 -321 -64q-114 -65 -114 -189q0 -123 114 -187q113 -64 321 -64q139 0 290 32q149 32 209 66v-330q-138 -46 -438 -53v-174l-279 -1v176 q-347 27 -522 165t-175 370z" />
<glyph unicode="&#xa3;" horiz-adv-x="1861" d="M60 587v284h306v181q0 188 210 294q211 107 572 107q166 0 311 -22q149 -23 216 -45l70 -22v-322q-40 15 -85 29q-55 17 -211 45q-160 29 -300 29q-144 0 -221 -43q-78 -44 -78 -109v-121h784v-284h-784v-49l-1 -2q-4 -122 -81 -199v-8h1030v-332h-1638v303q73 0 140 53 q66 52 66 143v90h-306z" />
<glyph unicode="&#xa4;" horiz-adv-x="1622" d="M61 266l218 195q-68 110 -68 256t68 256l-218 194l215 240l275 -246q114 41 260 41t258 -41l274 246l218 -241l-220 -194q70 -110 70 -256t-70 -255l220 -195l-218 -239l-274 245q-112 -41 -258 -41t-260 41l-275 -245zM569 715q0 -101 63 -157q62 -55 179 -55l-2 -2 q114 0 176 55q63 56 63 158t-63 158q-64 56 -175 56q-116 0 -178 -55q-63 -55 -63 -158z" />
<glyph unicode="&#xa5;" horiz-adv-x="2179" d="M61 1434h543l481 -578h9l481 578h543l-668 -801v-10h399v-158h-514v-94h514v-158h-514v-213h-493v213h-512v158h512v94h-512v158h401v10z" />
<glyph unicode="&#xa6;" horiz-adv-x="772" d="M184 -88v633h404v-633h-404zM184 901v621h404v-621h-404z" />
<glyph unicode="&#xa7;" horiz-adv-x="1558" d="M60 502q0 167 148 276q-146 100 -148 276q0 184 203 291t519 107q150 0 296 -18q147 -18 215 -33q70 -15 86 -24l2 -311q-15 9 -69 28q-52 18 -179 39q-126 21 -266 21q-121 0 -215 -19q-96 -19 -96 -60q0 -40 59 -54q61 -14 210 -23q672 -36 672 -376v-5 q0 -164 -151 -279q152 -98 150 -273q0 -185 -202 -291q-203 -107 -520 -107q-110 0 -259 14q-151 14 -237 28q-92 15 -103 21v311q13 -7 83 -24q64 -15 192 -34q123 -18 239 -18q114 0 214 20q97 19 97 60t-58 56q-61 16 -210 23q-672 40 -672 378zM496 571 q-2 -108 323 -108v-1q244 0 244 94q0 107 -322 108q-247 0 -245 -93z" />
<glyph unicode="&#xa8;" horiz-adv-x="1124" d="M61 1459q0 83 60 129q59 46 158 46l2 -1q101 0 159 -45q59 -45 59 -129q0 -83 -60 -130q-59 -46 -159 -46t-159 46q-60 47 -60 130zM628 1459q0 84 60 129t160 45l-1 1q99 0 158 -46q60 -46 60 -129t-60 -130q-59 -46 -160 -46q-98 0 -157 46q-60 47 -60 130z" />
<glyph unicode="&#xa9;" horiz-adv-x="1712" d="M56 719q0 311 213 489q214 179 582 179l-1 -1q370 0 582 -179t212 -489q-1 -310 -213 -490q-211 -180 -581 -180t-582 180t-212 491zM256 716q0 -235 161 -366q160 -130 437 -130l-3 2q275 0 435 130t160 366q2 236 -157 365t-436 129q-275 0 -435 -130t-162 -366z M438 717q0 164 130 255q131 92 348 92q116 0 215 -29v-192q-79 35 -198 35q-100 0 -171 -38q-70 -37 -70 -123l-2 -1q0 -84 69 -125q70 -41 172 -41q155 0 240 45l3 -195q-103 -33 -259 -32q-220 0 -348 91q-129 91 -129 258z" />
<glyph unicode="&#xaa;" horiz-adv-x="987" d="M60 1003q0 94 92 144q91 49 245 49q141 0 240 -35v6q0 47 -49 78q-50 32 -153 32q-88 0 -183 -19q-98 -20 -132 -39v188q39 17 156 32q119 15 203 15l-1 -1q446 0 447 -252v-385h-244l-23 90h-6q-73 -100 -291 -100q-134 0 -217 52q-84 53 -84 145zM341 1017 q0 -74 127 -74q166 0 166 117v6q-66 27 -133 27q-160 0 -160 -76z" />
<glyph unicode="&#xab;" horiz-adv-x="1515" d="M61 717l404 553h401l-411 -549v-8l411 -549h-401zM649 717l404 553h401l-412 -549v-8l412 -549h-401z" />
<glyph unicode="&#xac;" horiz-adv-x="1404" d="M61 700v340h1282v-647h-395v307h-887z" />
<glyph unicode="&#xad;" horiz-adv-x="1257" d="M61 551v330h1135v-330h-1135z" />
<glyph unicode="&#xae;" horiz-adv-x="1089" d="M26 1007q0 203 136 324q137 122 364 122q229 0 365 -121q137 -122 137 -325t-137 -325q-136 -121 -364 -121q-227 0 -364 122q-136 121 -136 324h-1zM145 1006q0 -159 107 -248t273 -89l-3 -2q168 0 275 89t107 249q0 163 -106 251q-107 89 -274 89q-166 0 -273 -90 q-106 -90 -106 -249zM328 777v457h246q89 0 139 -37q51 -37 51 -102q0 -102 -113 -131l115 -189h-143l-90 164h-74v-162h-131zM459 1032h96q74 0 74 56t-74 56l-96 -1v-111z" />
<glyph unicode="&#xaf;" horiz-adv-x="1128" d="M61 1294v262h1006v-262h-1006z" />
<glyph unicode="&#xb0;" horiz-adv-x="858" d="M28 1104q0 160 105 255q106 95 279 95t279 -95q105 -95 105 -255t-105 -255q-106 -95 -279 -95t-279 95q-105 95 -105 255zM259 1103q0 -68 42 -104t110 -36h-2q68 0 110 36t42 104q0 67 -42 105q-43 38 -109 38t-109 -38q-42 -38 -42 -105z" />
<glyph unicode="&#xb1;" horiz-adv-x="1466" d="M61 0v266h1344v-266h-1344zM74 707v331h487v322h371v-322h452v-331h-452v-322h-371v322h-487z" />
<glyph unicode="&#xb2;" horiz-adv-x="1077" d="M73 638q-45 190 54 327t339 177q178 32 216 63q16 13 16 30q0 68 -225 68q-83 0 -162 -13q-86 -14 -123 -25l-40 -13l2 213q48 11 171 26q127 15 195 15q245 0 365 -66t120 -208q0 -44 -15 -82q-15 -37 -49 -64q-31 -25 -66 -46q-33 -20 -86 -35q-44 -12 -87 -22 q-15 -3 -93 -19q-108 -22 -165 -50q-56 -27 -57 -78h633l-3 -198h-940z" />
<glyph unicode="&#xb3;" horiz-adv-x="1073" d="M63 657v201q43 -16 155 -31q110 -15 189 -15q301 0 301 102q0 89 -244 93q-136 5 -252 -6v158l207 2q250 0 250 86q0 41 -60 59t-195 18q-67 0 -169 -12q-101 -12 -145 -24v195q123 25 349 24q518 0 518 -219q0 -127 -179 -190v-6h1q223 -62 225 -207q0 -258 -566 -258 q-250 0 -385 30z" />
<glyph unicode="&#xb4;" horiz-adv-x="901" d="M61 1294l254 297h525l-463 -297h-316z" />
<glyph unicode="&#xb5;" horiz-adv-x="1939" d="M154 -406v1496h483v-553q0 -127 89 -195t245 -68q152 0 242 66t92 188v562h481v-1090h-430l-31 197h-10q-157 -217 -531 -217q-96 0 -139 18h-10v-404h-481z" />
<glyph unicode="&#xb6;" horiz-adv-x="2232" d="M52 908q0 248 186 386q187 139 516 140h1294v-1434h-409l2 1079h-192l2 -1079h-412v383h-260q-331 -1 -529 138t-198 387zM551 901q0 -79 56 -126q55 -46 150 -46h281v344h-288q-90 0 -145 -47q-54 -46 -54 -125z" />
<glyph unicode="&#xb7;" horiz-adv-x="679" d="M60 717q0 113 79 186t201 72l-1 -1q123 0 200 -73q78 -73 78 -186t-78 -186t-199 -72q-121 0 -201 74q-79 73 -79 186z" />
<glyph unicode="&#xb8;" horiz-adv-x="593" d="M61 -373l129 426l342 -51l-215 -375h-256z" />
<glyph unicode="&#xb9;" horiz-adv-x="614" d="M61 1161v185q89 0 146 45t59 125h287v-857h-301v527h-4q-81 -25 -187 -25z" />
<glyph unicode="&#xba;" horiz-adv-x="1040" d="M61 1132q0 152 121 237t339 85t339 -85t121 -237t-121 -237t-339 -85t-339 85t-121 237zM347 1132q0 -71 47 -109q46 -37 126 -37q79 0 125 37q47 38 47 109t-47 109q-46 37 -125 37q-80 0 -126 -37q-47 -38 -47 -109z" />
<glyph unicode="&#xbb;" horiz-adv-x="1515" d="M61 164l412 549v8l-412 549h402l403 -553l-403 -553h-402zM649 164l412 549v8l-412 549h402l403 -553l-403 -553h-402z" />
<glyph unicode="&#xbc;" horiz-adv-x="2344" d="M61 1079v185q89 0 147 45t60 125h286v-856h-303v524h-4q-75 -23 -186 -23zM342 0l1073 1434h416l-1073 -1434h-416zM1184 154v172l659 530h281v-504h160v-198h-160v-154h-303v154h-637zM1498 352h322v246h-4l-318 -240v-6z" />
<glyph unicode="&#xbd;" horiz-adv-x="2447" d="M57 1077v185q89 0 147 45t60 125h286v-856h-303v524h-4q-75 -23 -186 -23zM348 0l1073 1434h416l-1073 -1434h-416zM1440 -2q-43 190 56 327t339 177q179 32 216 63q17 13 18 30q0 68 -226 68q-83 0 -161 -13q-86 -14 -122 -25l-41 -13v213q50 12 172 26q127 15 192 15 q245 0 366 -66t121 -208q0 -52 -26 -96q-25 -43 -59 -69q-33 -25 -96 -48q-60 -21 -103 -31q-57 -13 -111 -23q-108 -22 -165 -50q-56 -27 -57 -78h633l-4 -199h-942z" />
<glyph unicode="&#xbe;" horiz-adv-x="2611" d="M61 595v201q42 -13 154 -28q105 -14 192 -16q301 0 301 102q0 88 -244 94q-162 0 -252 -8v160h207q250 0 250 86q0 41 -60 59t-195 18q-67 0 -169 -12q-101 -12 -145 -24v194q133 27 349 27q518 -5 518 -222q0 -127 -179 -192v-6l-1 1q223 -57 225 -207q0 -258 -566 -258 q-252 0 -385 31zM608 0l1073 1434h414l-1073 -1434h-414zM1450 154v172l659 530h281v-504h160v-198h-160v-154h-303v154h-637zM1764 353h322v246h-4l-318 -240v-6z" />
<glyph unicode="&#xbf;" horiz-adv-x="1501" d="M59 376q0 162 126 256t393 126l26 151h398l53 -313q-303 0 -408 -37q-106 -37 -106 -123q0 -66 78 -108t221 -42q140 0 293 26q150 26 228 51l78 26v-321q-20 -8 -75 -25q-48 -15 -204 -39t-318 -24l-3 -5q-359 0 -570 107q-210 106 -210 294zM537 1226q0 106 72 165 q73 59 193 59q121 0 193 -60t72 -166t-72 -165q-71 -58 -193 -58v1q-120 0 -193 59q-72 59 -72 165z" />
<glyph unicode="&#xc0;" horiz-adv-x="2060" d="M4 0l674 1434h702l676 -1434h-528l-109 240h-778l-109 -240h-528zM399 1903h525l254 -297h-316zM774 551h510l-250 547h-10z" />
<glyph unicode="&#xc1;" horiz-adv-x="2060" d="M4 0l674 1434h702l676 -1434h-528l-109 240h-778l-109 -240h-528zM774 551h510l-250 547h-10zM858 1606l254 297h524l-462 -297h-316z" />
<glyph unicode="&#xc2;" horiz-adv-x="2060" d="M4 0l674 1434h702l676 -1434h-528l-109 240h-778l-109 -240h-528zM461 1606l319 297h498l321 -297h-415l-152 133l-153 -133h-418zM774 551h510l-250 547h-10z" />
<glyph unicode="&#xc3;" horiz-adv-x="2060" d="M4 0l674 1434h702l676 -1434h-528l-109 240h-778l-109 -240h-528zM568 1935q64 56 144 71q81 15 143 6q59 -9 158 -38q7 -2 54 -15t54 -15l45 -9q38 -7 48 -6q11 2 40 3q30 2 48 12q3 2 18 10.5t25 14.5q29 17 53 37l92 -293q-62 -55 -144 -70t-144 -5q-64 11 -158 36 q-13 5 -49 15q-11 3 -21.5 6l-17.5 5t-9 3q-3 1 -8.5 2t-15.5 3.5l-18 4.5q-31 7 -42 6t-36 0t-41 -5q-20 -8 -38 -14q-23 -8 -43 -22q-16 -12 -43 -33l-91 290h-3zM771 551h510l-250 547h-10z" />
<glyph unicode="&#xc4;" horiz-adv-x="2060" d="M4 0l674 1434h702l676 -1434h-528l-109 240h-778l-109 -240h-528zM526 1769q0 83 60 129q59 46 158 46l2 -3q100 0 159 -45t59 -129t-60 -130q-59 -46 -159 -46q-98 0 -159 47q-60 46 -60 131zM774 551h510l-250 547h-10zM1093 1772q0 84 60 129t160 45l-1 -2 q99 0 158 -46q60 -46 60 -127q0 -83 -60 -130q-59 -46 -160 -46q-96 0 -157 47q-60 46 -60 130z" />
<glyph unicode="&#xc5;" horiz-adv-x="2060" d="M4 0l674 1434h702l676 -1434h-528l-109 240h-778l-109 -240h-528zM678 1849q0 120 95 188t257 68v-1q161 0 255 -67q95 -68 95 -188t-95 -189t-255 -69t-256 69t-96 189zM774 550h510l-250 547h-10zM921 1845q0 -47 30 -72q29 -25 79 -25v-1q46 0 78 26q31 25 31 72 q0 46 -31 71q-32 26 -78 26q-48 0 -79 -26q-30 -26 -30 -71z" />
<glyph unicode="&#xc6;" horiz-adv-x="3319" d="M-35 0l1299 1434h1951v-330h-1216v-238h1073v-286h-1073v-250h1245v-330h-1739v240h-764l-213 -240h-563zM1012 551h493v547h-6z" />
<glyph unicode="&#xc7;" horiz-adv-x="1896" d="M88 713q0 348 269 543t809 195q390 0 639 -92v-399q-63 66 -244 114t-345 48q-290 0 -462 -101q-171 -101 -171 -306q0 -201 172 -304t462 -103q177 0 368 50q190 50 254 123l2 -403q-179 -71 -534 -94l-205 -357h-256l105 357q-433 38 -648 228q-215 191 -215 501z" />
<glyph unicode="&#xc8;" horiz-adv-x="1996" d="M184 0v1434h1710v-330h-1216v-238h1073v-286h-1073v-250h1243v-330h-1737zM416 1903h524l254 -297h-315z" />
<glyph unicode="&#xc9;" horiz-adv-x="1996" d="M184 0v1434h1710v-330h-1216v-238h1073v-286h-1073v-250h1243v-330h-1737zM848 1606l254 297h524l-463 -297h-315z" />
<glyph unicode="&#xca;" horiz-adv-x="1996" d="M184 0v1434h1710v-330h-1216v-238h1073v-286h-1073v-250h1243v-330h-1737zM428 1606l320 297h497l322 -297h-416l-152 133l-153 -133h-418z" />
<glyph unicode="&#xcb;" horiz-adv-x="1996" d="M184 0v1434h1710v-330h-1216v-238h1073v-286h-1073v-250h1243v-330h-1737zM496 1769q0 83 60 129q59 46 158 46l-1 -3q101 0 159 -45q59 -45 59 -129t-60 -130q-59 -46 -159 -46q-98 0 -157 47t-59 131zM1062 1772q0 84 60 129t160 45l-1 -2q99 0 158 -46q60 -46 60 -127 q0 -83 -60 -130q-59 -46 -160 -46q-96 0 -157 47q-60 46 -60 130z" />
<glyph unicode="&#xcc;" horiz-adv-x="862" d="M-184 1903h524l254 -297h-315zM184 0v1434h494v-1434h-494z" />
<glyph unicode="&#xcd;" horiz-adv-x="862" d="M184 0v1434h494v-1434h-494zM262 1606l254 297h524l-462 -297h-316z" />
<glyph unicode="&#xce;" horiz-adv-x="862" d="M-137 1606l319 297h498l321 -297h-415l-152 133l-153 -133h-418zM184 0v1434h494v-1434h-494z" />
<glyph unicode="&#xcf;" horiz-adv-x="862" d="M-72 1769q0 83 60 129q59 46 158 46l2 -3q100 0 159 -45t59 -129t-60 -130q-59 -46 -159 -46q-98 0 -159 47q-60 46 -60 131zM184 0v1434h494v-1434h-494zM495 1772q0 84 60 129t160 45l-1 -2q99 0 158 -46q60 -46 60 -127q0 -83 -60 -130q-59 -46 -160 -46 q-96 0 -157 47q-60 46 -60 130z" />
<glyph unicode="&#xd0;" horiz-adv-x="2310" d="M-8 627v170h366v637h942q442 0 681 -192t239 -526q0 -336 -238 -526t-682 -190h-942v627h-366zM851 332h424q211 0 329 98q117 98 117 288q0 188 -118 287q-119 99 -327 99h-424v-307h434v-170h-434z" />
<glyph unicode="&#xd1;" horiz-adv-x="2146" d="M184 0v1434h482l815 -797h8v797h473v-1434h-487l-807 793h-9v-793h-475zM612 1935q64 56 144 71q81 15 143 6q59 -9 158 -38q7 -2 54 -15t54 -15q20 -4 44 -9q36 -8 47 -6t40 3q30 2 48 12q3 2 18 10.5t25 14.5q29 17 53 37l92 -293q-62 -55 -144 -70t-144 -5 q-64 11 -158 36q-13 5 -49 15q-11 3 -21.5 6l-17.5 5t-9 3l-40 10q-30 7 -42 6t-37 0t-41 -5q-20 -8 -38 -14q-23 -8 -43 -22q-16 -12 -43 -33l-91 290h-2z" />
<glyph unicode="&#xd2;" d="M89 716q0 342 246 540t701 198h-1q454 0 700 -198t246 -540t-246 -540t-700 -198t-700 198t-246 540zM408 1903h524l254 -297h-316zM575 717q0 -198 122 -303q121 -105 339 -105q214 0 336 105t122 303t-122 303t-336 105q-218 0 -339 -105q-122 -105 -122 -303z" />
<glyph unicode="&#xd3;" d="M89 716q0 342 246 540t701 198h-1q454 0 700 -198t246 -540t-246 -540t-700 -198t-700 198t-246 540zM575 717q0 -198 122 -303q121 -105 339 -105q214 0 336 105t122 303t-122 303t-336 105q-218 0 -339 -105q-122 -105 -122 -303zM846 1606l254 297h524l-463 -297h-315 z" />
<glyph unicode="&#xd4;" d="M89 716q0 342 246 540t701 198h-1q454 0 700 -198t246 -540t-246 -540t-700 -198t-700 198t-246 540zM465 1606l319 297h498l322 -297h-416l-152 133l-153 -133h-418zM575 717q0 -198 122 -303q121 -105 339 -105q214 0 336 105t122 303t-122 303t-336 105 q-218 0 -339 -105q-122 -105 -122 -303z" />
<glyph unicode="&#xd5;" d="M89 716q0 342 246 540t701 198h-1q454 0 700 -198t246 -540t-246 -540t-700 -198t-700 198t-246 540zM573 1935q64 56 144 71q81 15 143 6q59 -9 158 -38q8 -2 54 -15t54 -15q20 -4 44 -9q36 -8 47 -6t40 3q30 2 48 12q3 2 18 10.5t25 14.5q29 17 53 37l92 -293 q-62 -55 -144 -70t-144 -5t-157 36q-13 5 -49 15q-11 3 -21.5 6l-17.5 5t-9 3q-3 1 -8.5 2.5t-15 3.5t-17.5 4q-30 7 -42 6t-37 0t-41 -5q-20 -8 -38 -14q-23 -8 -43 -22q-16 -12 -43 -33l-90 290h-3zM575 717q0 -198 122 -303q121 -105 339 -105q214 0 336 105t122 303 t-122 303t-336 105q-218 0 -339 -105q-122 -105 -122 -303z" />
<glyph unicode="&#xd6;" d="M89 716q0 342 246 540t701 198h-1q454 0 700 -198t246 -540t-246 -540t-700 -198t-700 198t-246 540zM532 1771q0 83 60 129q59 46 158 46l-1 -3q101 0 159 -45q59 -45 59 -129q0 -83 -60 -130q-59 -46 -159 -46q-98 0 -157 47t-59 131zM575 717q0 -198 122 -303 q121 -105 339 -105q214 0 336 105t122 303t-122 303t-336 105q-218 0 -339 -105q-122 -105 -122 -303zM1096 1769q0 84 60 129t160 45l-1 -2q99 0 158 -46q60 -47 60 -127q0 -84 -60 -130q-59 -46 -160 -46q-96 0 -157 47q-60 47 -60 130z" />
<glyph unicode="&#xd7;" horiz-adv-x="1224" d="M61 432l297 281v8l-297 280l248 234l299 -281h8l299 281l248 -234l-297 -280v-8l297 -281l-248 -233l-299 280h-8l-299 -280z" />
<glyph unicode="&#xd8;" d="M93 721q0 343 246 540q247 197 700 197q306 0 522 -94l225 227l121 -121l-191 -192q268 -193 268 -558q0 -342 -246 -540t-700 -198l1 2q-303 0 -522 94l-225 -226l-121 121l190 191q-268 196 -268 557zM577 718q0 -158 82 -258l621 620q-99 45 -242 45v1 q-218 0 -339 -105q-122 -105 -122 -303zM797 357q105 -47 240 -47q215 0 336 105q122 105 122 302l2 1q0 158 -82 258z" />
<glyph unicode="&#xd9;" horiz-adv-x="2095" d="M158 669v764h493v-738q0 -190 104 -289q103 -99 293 -99q186 0 290 99t104 289v738h493v-758q0 -325 -231 -510q-232 -185 -657 -185l-2 -1q-424 0 -655 183q-230 183 -232 507zM422 1902h524l254 -297h-315z" />
<glyph unicode="&#xda;" horiz-adv-x="2095" d="M158 669v764h493v-738q0 -190 104 -289q103 -99 293 -99q186 0 290 99t104 289v738h493v-758q0 -325 -231 -510q-232 -185 -657 -185l-2 -1q-424 0 -655 183q-230 183 -232 507zM887 1605l254 297h524l-463 -297h-315z" />
<glyph unicode="&#xdb;" horiz-adv-x="2095" d="M158 669v764h493v-738q0 -190 104 -289q103 -99 293 -99q186 0 290 99t104 289v738h493v-758q0 -325 -231 -510q-232 -185 -657 -185l-2 -1q-424 0 -655 183q-230 183 -232 507zM475 1605l320 297h497l322 -297h-416l-151 133l-154 -133h-418z" />
<glyph unicode="&#xdc;" horiz-adv-x="2095" d="M158 669v764h493v-738q0 -190 104 -289q103 -99 293 -99q186 0 290 99t104 289v738h493v-758q0 -325 -231 -510q-232 -185 -657 -185l-2 -1q-424 0 -655 183q-230 183 -232 507zM541 1768q0 82 60 129q59 46 158 46l-2 -3q101 0 159 -45q59 -45 59 -129t-60 -130 q-59 -46 -157 -46q-96 0 -157 47q-60 46 -60 131zM1109 1771q0 84 60 129t160 45l-3 -2q99 0 158 -46q60 -47 60 -127q0 -83 -59 -130q-58 -46 -159 -46q-96 0 -157 47q-60 47 -60 130z" />
<glyph unicode="&#xdd;" d="M8 1434h543l481 -578h8l482 578h542l-782 -940v-494h-494v496zM868 1606l254 297h525l-463 -297h-316z" />
<glyph unicode="&#xde;" horiz-adv-x="1873" d="M184 -406v1901h486v-592h10q168 207 502 207q305 0 473 -150t168 -412t-169 -415q-170 -153 -472 -153h1q-335 0 -507 192h-10v-578h-482zM672 545q0 -128 91 -198t243 -70q151 0 243 71q91 70 91 198q0 127 -91 196t-243 69v-3q-152 0 -243 -69t-91 -194z" />
<glyph unicode="&#xdf;" horiz-adv-x="2150" d="M161 -4v922q0 272 261 450q262 179 666 179q337 0 550 -106q214 -106 214 -319l-481 -260q2 -8 2 -10q193 10 339 -23q144 -33 222 -99t114 -141t36 -161q0 -76 -33 -148t-108 -144q-74 -71 -223 -115q-150 -44 -351 -44q-100 0 -282 23q-177 22 -280 45v297 q217 -61 412 -61q64 0 120 10q61 11 114 31q55 21 90 63q35 43 35 99q0 130 -172 191t-549 12v168l516 305q0 55 -88 91q-89 36 -183 36q-210 0 -332 -115q-123 -116 -123 -318l1 -858h-487z" />
<glyph unicode="&#xe0;" horiz-adv-x="1699" d="M55 327q0 166 160 253q161 87 436 87q231 0 414 -60v10q0 83 -87 135q-88 53 -271 53q-149 0 -315 -34q-169 -35 -233 -72v330q66 27 273 54t348 27h-2q776 0 776 -440v-670h-413l-39 145h-10q-135 -166 -502 -165q-240 0 -388 92q-147 92 -147 255zM188 1591h525 l254 -297h-316zM537 350q0 -66 63 -97q62 -31 161 -31q156 0 228 57t72 149l2 8q-116 43 -244 43q-283 0 -282 -129z" />
<glyph unicode="&#xe1;" horiz-adv-x="1699" d="M55 327q0 166 160 253q161 87 436 87q231 0 414 -60v10q0 83 -87 135q-88 53 -271 53q-149 0 -315 -34q-169 -35 -233 -72v330q66 27 273 54t348 27h-2q776 0 776 -440v-670h-413l-39 145h-10q-135 -166 -502 -165q-240 0 -388 92q-147 92 -147 255zM537 350 q0 -66 63 -97q62 -31 161 -31q156 0 228 57t72 149l2 8q-116 43 -244 43q-283 0 -282 -129zM576 1294l253 297h525l-463 -297h-315z" />
<glyph unicode="&#xe2;" horiz-adv-x="1699" d="M55 327q0 166 160 253q161 87 436 87q231 0 414 -60v10q0 83 -87 135q-88 53 -271 53q-149 0 -315 -34q-169 -35 -233 -72v330q66 27 273 54t348 27h-2q776 0 776 -440v-670h-413l-39 145h-10q-135 -166 -502 -165q-240 0 -388 92q-147 92 -147 255zM279 1294l319 297 h498l321 -297h-415l-152 133l-154 -133h-417zM537 350q0 -66 63 -97q62 -31 161 -31q156 0 228 57t72 149l2 8q-116 43 -244 43q-283 0 -282 -129z" />
<glyph unicode="&#xe3;" horiz-adv-x="1699" d="M55 327q0 166 160 253q161 87 436 87q231 0 414 -60v10q0 83 -87 135q-88 53 -271 53q-149 0 -315 -34q-169 -35 -233 -72v330q66 27 273 54t348 27h-2q776 0 776 -440v-670h-413l-39 145h-10q-135 -166 -502 -165q-240 0 -388 92q-147 92 -147 255zM383 1625 q64 56 144 71q81 15 143 6q58 -8 159 -38q7 -2 54 -15t54 -15l45 -9q38 -7 48 -6q11 2 40 3q30 2 48 12q23 13 43 24q27 14 53 36l92 -293q-62 -55 -144 -70t-144 -5q-66 11 -157 37q-13 5 -49 15q-11 3 -21.5 6l-17.5 5t-9 3l-42 10q-32 8 -42 6t-36 0q-25 1 -41 -5 q-4 -2 -17 -7t-21 -8q-23 -9 -43 -22q-19 -12 -43 -33l-90 291zM531 351q0 -65 63 -97q62 -31 161 -31q156 0 228 57t72 149l2 8q-116 43 -244 43q-283 0 -282 -129z" />
<glyph unicode="&#xe4;" horiz-adv-x="1699" d="M55 327q0 166 160 253q161 87 436 87q231 0 414 -60v10q0 83 -87 135q-88 53 -271 53q-149 0 -315 -34q-169 -35 -233 -72v330q66 27 273 54t348 27h-2q776 0 776 -440v-670h-413l-39 145h-10q-135 -166 -502 -165q-240 0 -388 92q-147 92 -147 255zM344 1460 q0 82 60 129q59 46 158 46l-1 -1q101 0 159 -45q59 -45 59 -129q0 -83 -59 -130q-58 -46 -157 -46q-100 0 -159 46q-60 46 -60 130zM535 350q0 -66 63 -97q62 -31 161 -31q156 0 228 57t72 149l2 8q-116 43 -244 43q-283 0 -282 -129zM911 1460q0 84 60 129t160 45l-1 1 q99 0 158 -46q60 -47 60 -129q0 -84 -60 -130q-59 -46 -160 -46q-98 0 -157 46q-60 46 -60 130z" />
<glyph unicode="&#xe5;" horiz-adv-x="1699" d="M55 327q0 166 160 253q161 87 436 87q231 0 414 -60v10q0 83 -87 135q-88 53 -271 53q-149 0 -315 -34q-169 -35 -233 -72v330q66 27 273 54t348 27h-2q776 0 776 -440v-670h-413l-39 145h-10q-135 -166 -502 -165q-240 0 -388 92q-147 92 -147 255zM496 1537 q0 121 95 189t257 68v-1q161 0 255 -67q95 -68 95 -189t-95 -190t-255 -69t-256 69t-96 190zM537 349q0 -65 63 -97q62 -31 161 -31q156 0 228 57t72 149l2 8q-116 43 -244 43q-283 0 -282 -129zM741 1532q0 -46 30 -72q29 -25 79 -25v-3q46 0 77 26q30 26 30 72t-30 71 q-31 26 -77 26q-50 0 -79 -25q-30 -26 -30 -70z" />
<glyph unicode="&#xe6;" horiz-adv-x="2721" d="M56 329q0 156 154 243t432 87q250 0 424 -63v16q0 86 -87 143t-269 57q-148 0 -318 -35q-167 -34 -233 -71v323q63 27 270 54t350 27q451 0 598 -215h11q84 97 237 156q154 59 311 59q327 0 521 -157q196 -158 197 -402l-2 -95h-1046q33 -98 137 -140q103 -42 297 -42 q138 0 291 23q150 23 240 54v-299q-248 -71 -569 -69q-483 0 -676 262h-10q-79 -121 -257 -192q-176 -70 -374 -70q-283 0 -456 93t-173 253zM527 347q0 -66 66 -99t159 -33q147 0 234 60t87 150l1 11q-117 47 -255 47q-129 0 -210 -34q-82 -34 -82 -102zM1650 623l557 1 q-23 197 -275 195q-103 0 -185 -53q-80 -52 -97 -143z" />
<glyph unicode="&#xe7;" horiz-adv-x="1564" d="M81 538q0 268 218 418q217 150 650 150q127 0 289 -15q159 -15 238 -41v-344q-70 39 -210 69t-258 30q-210 0 -326 -67q-117 -68 -117 -196t118 -195t325 -67q144 0 296 32q151 32 209 69v-344q-123 -41 -421 -53l-203 -357h-256l108 358q-329 33 -495 176 q-165 143 -165 377z" />
<glyph unicode="&#xe8;" horiz-adv-x="1718" d="M81 545q0 258 207 411t577 153q373 0 579 -147t207 -409l-2 -104h-1053q33 -91 140 -129q105 -37 300 -37q307 0 535 77v-315q-111 -31 -309 -48q-204 -17 -364 -17q-388 0 -602 148q-215 149 -215 417zM270 1591h525l254 -297h-316zM594 631h544q-20 188 -275 188 q-101 0 -172 -49q-72 -49 -97 -139z" />
<glyph unicode="&#xe9;" horiz-adv-x="1718" d="M81 545q0 258 207 411t577 153q373 0 579 -147t207 -409l-2 -104h-1053q33 -91 140 -129q105 -37 300 -37q307 0 535 77v-315q-111 -31 -309 -48q-204 -17 -364 -17q-388 0 -602 148q-215 149 -215 417zM594 631h544q-20 188 -275 188q-101 0 -172 -49q-72 -49 -97 -139z M649 1294l254 297h524l-462 -297h-316z" />
<glyph unicode="&#xea;" horiz-adv-x="1718" d="M81 545q0 258 207 411t577 153q373 0 579 -147t207 -409l-2 -104h-1053q33 -91 140 -129q105 -37 300 -37q307 0 535 77v-315q-111 -31 -309 -48q-204 -17 -364 -17q-388 0 -602 148q-215 149 -215 417zM289 1294l319 297h498l321 -297h-415l-152 133l-153 -133h-418z M594 631h544q-20 188 -275 188q-101 0 -172 -49q-72 -49 -97 -139z" />
<glyph unicode="&#xeb;" horiz-adv-x="1718" d="M81 545q0 258 207 411t577 153q373 0 579 -147t207 -409l-2 -104h-1053q33 -91 140 -129q105 -37 300 -37q307 0 535 77v-315q-111 -31 -309 -48q-204 -17 -364 -17q-388 0 -602 148q-215 149 -215 417zM356 1460q0 82 60 129q59 46 158 46l2 -1q100 0 159 -45t59 -129 t-60 -130q-59 -46 -159 -46t-159 46q-60 46 -60 130zM595 631h544q-20 188 -275 188q-101 0 -172 -49q-72 -49 -97 -139zM923 1460q0 84 60 129t160 45l-1 1q99 0 158 -46q60 -47 60 -129q0 -84 -60 -130q-59 -46 -160 -46q-98 0 -157 46q-60 46 -60 130z" />
<glyph unicode="&#xec;" horiz-adv-x="817" d="M-227 1591h524l254 -297h-315zM154 0v1090h481v-1090h-481z" />
<glyph unicode="&#xed;" horiz-adv-x="817" d="M154 0v1090h481v-1090h-481zM231 1294l254 297h525l-463 -297h-316z" />
<glyph unicode="&#xee;" horiz-adv-x="817" d="M-160 1294l320 297h497l322 -297h-416l-151 133l-154 -133h-418zM154 0v1090h481v-1090h-481z" />
<glyph unicode="&#xef;" horiz-adv-x="817" d="M-96 1460q0 82 60 129q59 46 158 46l-2 -1q100 0 159 -45t59 -129t-60 -130q-59 -46 -157 -46t-157 46q-60 46 -60 130zM154 0v1090h481v-1090h-481zM472 1460q0 84 60 129t160 45l-3 1q99 0 158 -46q60 -47 60 -129q0 -83 -59 -130q-58 -46 -159 -46q-98 0 -157 46 q-60 46 -60 130z" />
<glyph unicode="&#xf0;" horiz-adv-x="1687" d="M54 511q0 224 177 349q176 124 488 124q244 0 385 -90l8 8q-76 185 -330 277l-243 -177l-68 91l156 112q0 4 -2 10q-163 31 -345 12v331q399 35 710 -78l254 186l68 -90l-193 -143v-11q227 -116 351 -300t123 -397l-3 -1q0 -348 -218 -546t-582 -198q-145 0 -274 30 t-234 93q-106 63 -167 168q-61 104 -61 240zM475 527q0 -93 88 -148q89 -56 244 -56q151 0 243 62q91 61 91 145t-100 135q-101 51 -237 51l-1 -3q-145 0 -237 -47q-91 -46 -91 -139z" />
<glyph unicode="&#xf1;" horiz-adv-x="1929" d="M154 0v1090h430l30 -181h11q168 201 530 201l-3 1q302 0 466 -148q165 -149 165 -411v-551h-483v551q0 128 -90 194t-243 66t-242 -66t-90 -189v-557h-481zM501 1626q64 56 144 71q81 15 143 6q59 -9 158 -38q8 -1 54 -15t54 -15l45 -9q37 -8 48 -6t40 3q31 2 47 12 q16 11 42 24t51 36l92 -293q-62 -55 -144 -70t-144 -5q-66 11 -157 37q-13 5 -49 15q-11 3 -21.5 6l-17.5 5t-9 3q-3 1 -8.5 2.5t-15 3.5t-17.5 4q-30 7 -42 6t-37 0q-24 1 -40 -5q-4 -2 -17 -7t-21 -8q-23 -9 -43 -22q-19 -12 -43 -33l-90 291z" />
<glyph unicode="&#xf2;" horiz-adv-x="1746" d="M79 542q0 264 210 414t585 150q376 0 584 -150q209 -150 209 -414t-209 -414q-208 -150 -583 -150t-585 150t-210 414h-1zM265 1588h525l253 -297h-315zM560 544q0 -127 86 -196t225 -69q141 0 227 69t86 197v-3q0 130 -85 197q-86 68 -228 68q-140 0 -225 -67 q-86 -68 -86 -196z" />
<glyph unicode="&#xf3;" horiz-adv-x="1746" d="M79 542q0 264 210 414t585 150q376 0 584 -150q209 -150 209 -414t-209 -414q-208 -150 -583 -150t-585 150t-210 414h-1zM560 544q0 -127 86 -196t225 -69q141 0 227 69t86 197v-3q0 130 -85 197q-86 68 -228 68q-140 0 -225 -67q-86 -68 -86 -196zM687 1291l254 297 h524l-462 -297h-316z" />
<glyph unicode="&#xf4;" horiz-adv-x="1746" d="M79 542q0 264 210 414t585 150q376 0 584 -150q209 -150 209 -414t-209 -414q-208 -150 -583 -150t-585 150t-210 414h-1zM302 1291l320 297h497l322 -297h-416l-152 133l-153 -133h-418zM560 544q0 -127 86 -196t225 -69q141 0 227 69t86 197v-3q0 130 -85 197 q-86 68 -228 68q-140 0 -225 -67q-86 -68 -86 -196z" />
<glyph unicode="&#xf5;" horiz-adv-x="1746" d="M79 542q0 264 210 414t585 150q376 0 584 -150q209 -150 209 -414t-209 -414q-208 -150 -583 -150t-585 150t-210 414h-1zM408 1622q64 56 144 71q81 15 143 6q59 -9 158 -38q7 -1 54 -15t54 -15l45 -9q38 -8 48 -6q11 2 40 3q30 1 48 12q23 13 43 24q27 14 53 36 l92 -293q-62 -55 -144 -70t-144 -5q-66 11 -157 37q-13 5 -49 15q-11 3 -21.5 6l-17.5 5t-9 3q-3 1 -8.5 2.5t-15 3.5t-17.5 4q-30 7 -42 6t-37 0t-41 -5q-4 -2 -17 -7t-21 -8q-23 -9 -43 -22q-19 -12 -43 -33l-90 291zM560 544q0 -127 86 -196t225 -69q141 0 227 69t86 197 v-3q0 130 -85 197q-86 68 -228 68q-140 0 -225 -67q-86 -68 -86 -196z" />
<glyph unicode="&#xf6;" horiz-adv-x="1746" d="M79 542q0 264 210 414t585 150q376 0 584 -150q209 -150 209 -414t-209 -414q-208 -150 -583 -150t-585 150t-210 414h-1zM371 1456q0 82 60 129q59 46 158 46l-2 -1q101 0 159 -45q59 -45 59 -129t-60 -130q-59 -46 -157 -46t-157 46q-60 46 -60 130zM560 544 q0 -127 86 -196t225 -69q141 0 227 69t86 197v-3q0 130 -85 197q-86 68 -228 68q-140 0 -225 -67q-86 -68 -86 -196zM934 1456q0 84 60 129t160 45l-1 1q99 0 158 -46q60 -47 60 -129q0 -84 -60 -130q-59 -46 -160 -46q-98 0 -157 46q-60 46 -60 130z" />
<glyph unicode="&#xf7;" horiz-adv-x="1501" d="M61 573v287h1379v-287h-1379zM470 1195q0 107 78 168q79 62 203 62h-1q124 -1 201 -62q77 -60 77 -169q0 -106 -78 -168q-77 -61 -202 -61q-124 1 -201 62q-77 60 -77 168zM471 237q0 107 78 168q79 62 203 62l-1 -2q124 -1 201 -62q77 -60 77 -168q0 -107 -78 -168 q-79 -62 -202 -62q-124 1 -201 62q-77 60 -77 170z" />
<glyph unicode="&#xf8;" horiz-adv-x="1746" d="M80 545q0 264 209 414t585 150q220 0 394 -61l194 194l109 -108l-152 -152q248 -147 248 -436q0 -263 -209 -415q-208 -151 -584 -151q-202 0 -393 63l-196 -197l-111 111l154 154v-2q-248 147 -248 436zM561 544q0 -92 51 -153l394 393q-66 25 -134 25q-140 0 -225 -69 q-86 -69 -86 -196zM742 304q85 -27 129 -26q141 0 227 69t86 198q0 90 -49 151z" />
<glyph unicode="&#xf9;" horiz-adv-x="1929" d="M145 537v551h484v-551q0 -127 90 -193t243 -66q154 0 242 66t90 188v558h482v-1090h-430l-31 180h-10q-170 -200 -531 -200l2 -2q-302 0 -466 148q-165 148 -165 411zM362 1589h525l254 -297h-316z" />
<glyph unicode="&#xfa;" horiz-adv-x="1929" d="M145 537v551h484v-551q0 -127 90 -193t243 -66q154 0 242 66t90 188v558h482v-1090h-430l-31 180h-10q-170 -200 -531 -200l2 -2q-302 0 -466 148q-165 148 -165 411zM760 1292l254 297h524l-463 -297h-315z" />
<glyph unicode="&#xfb;" horiz-adv-x="1929" d="M145 537v551h484v-551q0 -127 90 -193t243 -66q154 0 242 66t90 188v558h482v-1090h-430l-31 180h-10q-170 -200 -531 -200l2 -2q-302 0 -466 148q-165 148 -165 411zM397 1292l320 297h497l322 -297h-416l-151 133l-154 -133h-418z" />
<glyph unicode="&#xfc;" horiz-adv-x="1929" d="M145 537v551h484v-551q0 -127 90 -193t243 -66q154 0 242 66t90 188v558h482v-1090h-430l-31 180h-10q-170 -200 -531 -200l2 -2q-302 0 -466 148q-165 148 -165 411zM464 1457q0 83 60 129q59 46 158 46l-2 -1q100 0 159 -45t59 -129q0 -83 -60 -130q-59 -46 -157 -46 t-157 46q-60 46 -60 130zM1027 1457q0 84 60 129t160 45l-3 1q99 0 158 -46q60 -46 60 -129t-59 -130q-58 -46 -159 -46q-98 0 -157 46q-60 46 -60 130z" />
<glyph unicode="&#xfd;" horiz-adv-x="1789" d="M14 1090h539l365 -603q8 2 10 2l309 601h539l-826 -1496h-483l240 463zM739 1294l254 297h525l-463 -297h-316z" />
<glyph unicode="&#xfe;" horiz-adv-x="2007" d="M154 0v1434h493v-193h510q408 0 589 -133t181 -391t-181 -391t-589 -133h-510v-193h-493zM647 523h508q130 0 206 50q75 49 75 144t-74 145q-73 49 -207 49l-508 -1v-387z" />
<glyph unicode="&#xff;" horiz-adv-x="1789" d="M14 1090h539l365 -603q8 2 10 2l309 601h539l-826 -1496h-483l240 463zM392 1460q0 82 60 129q59 46 158 46l-1 -1q101 0 159 -45q59 -45 59 -129q0 -83 -59 -130q-58 -46 -157 -46q-100 0 -159 46q-60 46 -60 130zM958 1460q0 84 60 129t160 45v1q99 0 158 -46 q60 -47 60 -129q0 -84 -60 -130q-59 -46 -160 -46q-99 0 -158 46q-60 46 -60 130z" />
<glyph unicode="&#x152;" horiz-adv-x="3381" d="M91 717q0 343 299 540t861 197q152 0 320 -20h1694v-330h-1219v-238h1075v-286h-1075v-250h1245l2 -330h-1706q-149 -20 -334 -20q-565 0 -864 197q-298 196 -298 540zM577 717q0 -198 166 -303q167 -105 469 -105l-1 1q211 0 345 60v694q-135 61 -344 61 q-302 0 -469 -105q-166 -105 -166 -303z" />
<glyph unicode="&#x153;" horiz-adv-x="2832" d="M79 538q0 262 203 417t539 155q387 0 596 -215h8q220 215 592 215q355 0 551 -151q197 -152 197 -414l-4 -97h-1051q31 -96 140 -138q108 -42 299 -42q307 0 534 78v-303q-233 -66 -621 -65q-425 0 -637 200h-8q-195 -201 -598 -200q-338 0 -539 150t-201 410zM555 543 q0 -129 85 -198q86 -69 226 -69l-2 -2q139 0 226 69t87 198q0 130 -85 197q-86 68 -226 68q-141 0 -226 -67t-85 -196zM1704 613l596 -1q-23 203 -300 203q-110 0 -190 -55t-106 -147z" />
<glyph unicode="&#x178;" d="M8 1434h543l481 -578h8l482 578h542l-782 -940v-494h-494v496zM533 1804q0 82 60 129q59 46 158 46l-1 -1q100 0 159 -45t59 -129t-60 -130q-59 -46 -159 -46q-99 0 -157 46q-59 47 -59 130zM1099 1804q0 84 60 129t160 45l-1 1q99 0 158 -46q60 -47 60 -129 q0 -84 -60 -130q-59 -46 -160 -46q-98 0 -157 46q-60 46 -60 130z" />
<glyph unicode="&#x2c6;" horiz-adv-x="1261" d="M61 1294l320 297h498l321 -297h-416l-151 133l-154 -133h-418z" />
<glyph unicode="&#x2dc;" horiz-adv-x="1040" d="M59 1625q64 56 144 71q81 15 143 6q59 -9 158 -38q8 -2 54 -15t54 -15q20 -4 44 -9q36 -8 47 -6t40 3q30 2 48 12q23 13 43 24q27 14 53 36l92 -293q-62 -55 -144 -70t-144 -5q-68 11 -158 37q-13 5 -49 15q-11 3 -21.5 6l-17.5 5t-9 3t-6.5 2t-8.5 2t-11.5 2.5 t-13.5 3.5q-30 8 -42 6q-12 -1 -37 0t-41 -5q-4 -2 -17 -7t-21 -8q-23 -9 -43 -22q-19 -12 -43 -33l-91 291z" />
<glyph unicode="&#x2000;" horiz-adv-x="1052" />
<glyph unicode="&#x2001;" horiz-adv-x="2105" />
<glyph unicode="&#x2002;" horiz-adv-x="1052" />
<glyph unicode="&#x2003;" horiz-adv-x="2105" />
<glyph unicode="&#x2004;" horiz-adv-x="701" />
<glyph unicode="&#x2005;" horiz-adv-x="526" />
<glyph unicode="&#x2006;" horiz-adv-x="350" />
<glyph unicode="&#x2007;" horiz-adv-x="350" />
<glyph unicode="&#x2008;" horiz-adv-x="263" />
<glyph unicode="&#x2009;" horiz-adv-x="421" />
<glyph unicode="&#x200a;" horiz-adv-x="116" />
<glyph unicode="&#x2010;" horiz-adv-x="1257" d="M61 551v330h1135v-330h-1135z" />
<glyph unicode="&#x2011;" horiz-adv-x="1257" d="M61 551v330h1135v-330h-1135z" />
<glyph unicode="&#x2012;" horiz-adv-x="1257" d="M61 551v330h1135v-330h-1135z" />
<glyph unicode="&#x2013;" horiz-adv-x="1298" d="M61 551v330h1176v-330h-1176z" />
<glyph unicode="&#x2014;" horiz-adv-x="1339" d="M61 551v330h1217v-330h-1217z" />
<glyph unicode="&#x2018;" horiz-adv-x="677" d="M56 973q0 163 96 297t217 183l129 -160q-45 -22 -78 -53q-31 -30 -39 -50l-8 -21q99 0 170 -64q72 -64 70 -168q0 -111 -76 -174q-77 -63 -199 -63l-5 -1q-125 0 -201 73t-76 201z" />
<glyph unicode="&#x2019;" horiz-adv-x="677" d="M62 1219q0 111 77 173t201 62l4 -3q125 0 200 -72t75 -199q0 -164 -96 -297q-96 -134 -217 -183l-127 160q45 22 78 53q31 30 39 51l8 20q-97 0 -170 65q-72 65 -72 170z" />
<glyph unicode="&#x201a;" horiz-adv-x="677" d="M62 212q0 111 77 174t201 63h4q126 0 200 -73q75 -74 75 -201q0 -163 -96 -297t-217 -183l-127 160q45 22 78 53q31 30 39 50l8 21q-97 0 -170 65q-72 64 -72 168z" />
<glyph unicode="&#x201c;" horiz-adv-x="1337" d="M53 972q0 164 96 297q96 134 217 183l129 -160q-45 -22 -78 -53q-31 -30 -39 -50l-8 -21q99 0 170 -64q72 -64 70 -168q0 -111 -76 -174t-199 -63l-5 -1q-125 0 -201 73t-76 201zM719 973q0 163 96 297t217 183l127 -160q-45 -22 -78 -53q-30 -29 -40 -50l-8 -21 q99 0 170 -64q72 -65 72 -168q0 -111 -77 -174q-76 -63 -201 -63l-3 -1q-126 0 -200 73q-75 74 -75 201z" />
<glyph unicode="&#x201d;" horiz-adv-x="1337" d="M62 1219q0 111 77 173t201 62l4 -3q125 0 200 -72t75 -199q0 -164 -96 -297q-96 -134 -217 -183l-127 160q45 22 78 53q31 30 39 51l8 20q-97 0 -170 65q-72 65 -72 170zM726 1216q0 111 77 173t200 62l1 -3q124 0 201 -72q76 -72 76 -199q0 -163 -96 -297t-216 -183 l-129 160q45 22 78 53q32 30 39 51l9 20q-97 0 -170 65q-72 64 -70 170z" />
<glyph unicode="&#x201e;" horiz-adv-x="1337" d="M62 212q0 111 77 174t201 63h4q126 0 200 -73q75 -74 75 -201q0 -163 -96 -297t-217 -183l-127 160q45 22 78 53q31 30 39 50l8 21q-97 0 -170 65q-72 64 -72 168zM726 212q0 111 77 174t200 63h1q125 0 201 -73t76 -201q0 -163 -96 -297t-216 -183l-129 160q45 22 78 53 q31 30 39 50l9 21q-97 0 -170 65q-72 64 -70 168z" />
<glyph unicode="&#x2022;" horiz-adv-x="679" d="M60 717q0 113 79 186t201 72l-1 -1q123 0 200 -73q78 -73 78 -186t-78 -186t-199 -72q-121 0 -201 74q-79 73 -79 186z" />
<glyph unicode="&#x2026;" horiz-adv-x="2179" d="M62 216q0 111 77 174t201 63l1 1q125 0 201 -63q77 -63 77 -174t-78 -174t-201 -63q-124 2 -201 63q-77 62 -77 173zM812 217q0 111 77 174t201 63v1q124 0 201 -63t77 -174t-78 -174t-200 -63q-124 1 -201 63t-77 173zM1561 218q0 111 77 174q76 63 201 63v1 q125 0 201 -63q77 -63 77 -174t-78 -174t-201 -63q-124 2 -201 63q-76 61 -76 173z" />
<glyph unicode="&#x202f;" horiz-adv-x="421" />
<glyph unicode="&#x2039;" horiz-adv-x="927" d="M61 717l404 553h401l-411 -549v-8l411 -549h-401z" />
<glyph unicode="&#x203a;" horiz-adv-x="927" d="M61 164l412 549v8l-412 549h402l403 -553l-403 -553h-402z" />
<glyph unicode="&#x205f;" horiz-adv-x="526" />
<glyph unicode="&#x20ac;" horiz-adv-x="2150" d="M61 514v158h277v94h-277v158h304q74 253 336 389q263 137 712 137q173 0 351 -24q180 -24 288 -67v-399q-63 66 -243 114t-346 48q-408 0 -553 -196h715v-158h-788q-4 -32 -6 -53q0 -29 3 -41h790v-158h-729q141 -209 567 -209q177 0 368 50q190 50 257 123l2 -403 q-111 -43 -307 -70q-195 -27 -369 -27v-4q-458 0 -721 140q-262 139 -330 398h-301z" />
<glyph unicode="&#x2122;" horiz-adv-x="1685" d="M27 1298v136h680l2 -136h-240v-356h-205v356h-237zM782 942v492h277l158 -285h10l157 285h275v-492h-195v320h-4l-182 -320h-115l-180 320h-6v-320h-195z" />
<glyph unicode="&#x25fc;" horiz-adv-x="1090" d="M0 0v1090h1090v-1090h-1090z" />
<glyph unicode="&#xfb01;" horiz-adv-x="2131" d="M4 807v283h336v63q0 401 760 401q144 0 231 -4v-276q-26 2 -149 2l-1 -1q-185 0 -273 -41t-89 -144h512v-283h-512v-807h-479v807h-336zM1442 1438q0 106 72 165q73 59 193 59v-1q121 0 193 -60t72 -166q0 -107 -72 -165q-71 -58 -193 -58q-121 0 -193 60t-72 166z M1467 -1v1090h482v-1090h-482z" />
<glyph unicode="&#xfb02;" horiz-adv-x="2115" d="M4 807v283h336v63q0 401 760 401q144 0 231 -4v-276q-26 2 -149 2l-1 -1q-185 0 -273 -41t-89 -144h512v-283h-512v-807h-479v807h-336zM1474 -1v1495h481v-1495h-481z" />
</font>
</defs>
</svg>
