<?xml version="1.0" standalone="no"?>
<!DOCTYPE svg PUBLIC "-//W3C//DTD SVG 1.1//EN" "http://www.w3.org/Graphics/SVG/1.1/DTD/svg11.dtd" >
<svg xmlns="http://www.w3.org/2000/svg" xmlns:xlink="http://www.w3.org/1999/xlink" version="1.1">
<metadata></metadata>
<defs>
<font id="matricesemibold" horiz-adv-x="2027" >
<font-face units-per-em="2048" ascent="1536" descent="-512" />
<missing-glyph horiz-adv-x="716" />
<glyph horiz-adv-x="0" />
<glyph unicode="&#xd;" horiz-adv-x="1163" d="M80 610l328 328h157l-260 -260v-10h664v481h114v-596h-778v-10l260 -258h-157z" />
<glyph horiz-adv-x="1163" d="M80 610l328 328h157l-260 -260v-10h664v481h114v-596h-778v-10l260 -258h-157z" />
<glyph unicode=" "  horiz-adv-x="716" />
<glyph unicode="&#x09;" horiz-adv-x="716" />
<glyph unicode="&#xa0;" horiz-adv-x="716" />
<glyph unicode="!" horiz-adv-x="555" d="M79 152q0 78 55 124t144 46h-1q90 0 143 -46q54 -46 54 -126q0 -78 -55 -124t-144 -46t-142 46q-54 46 -54 126zM86 1434h381l-49 -983h-273z" />
<glyph unicode="&#x22;" horiz-adv-x="886" d="M80 1434h291l-23 -535h-248zM516 1434h291l-23 -535h-247z" />
<glyph unicode="#" horiz-adv-x="2037" d="M80 348v182h334l49 373h-275v182h297l45 349h338l-45 -349h488l45 349h338l-45 -349h309v-182h-334l-47 -373h262v-182h-287l-45 -348h-338l45 348h-485l-45 -348h-338l45 348h-311zM752 530h487l47 373h-485z" />
<glyph unicode="$" horiz-adv-x="1884" d="M76 134v268q154 -70 387 -126q230 -55 465 -55q530 0 530 189q0 52 -31 84q-31 33 -105 54t-165 33q-100 13 -243 23q-112 9 -222 20q-81 8 -193 29q-105 19 -171 48q-65 28 -124 72t-86 107t-27 147q0 209 202 311q203 102 543 114v229h213v-229q212 -11 389 -49 q181 -39 248 -66v-256q-99 43 -307 88q-207 45 -440 45q-496 0 -496 -167q0 -89 122 -121q121 -32 420 -54l-6 -1q174 -13 282 -28q113 -16 224 -47q109 -30 173 -75q65 -45 102 -115q38 -71 38 -168q0 -206 -192 -325q-191 -118 -562 -130v-230h-213v234q-192 13 -407 56 t-348 91z" />
<glyph unicode="%" horiz-adv-x="2023" d="M77 1093q0 157 110 259q109 102 276 102h-2q164 0 275 -102t111 -259q0 -158 -111 -260t-274 -102q-166 0 -276 102q-109 102 -109 260zM266 1093q0 -79 54 -130t137 -51q82 0 136 51t54 131q0 79 -55 128q-56 50 -135 50q-81 0 -136 -50q-54 -50 -54 -128zM485 0 l766 1434h277l-768 -1434h-275zM1173 340q0 158 110 260q109 102 276 102h-2q164 0 275 -102t111 -260t-111 -258q-112 -101 -274 -101q-166 0 -276 101q-109 100 -109 258zM1364 340q0 -78 54 -128q55 -50 137 -50h-3q79 0 135 50q55 49 55 128q0 80 -54 129 q-55 50 -135 50t-135 -50q-54 -49 -54 -129z" />
<glyph unicode="&#x26;" horiz-adv-x="2023" d="M76 479q0 174 110 273q109 99 278 117l6 11q-59 107 -59 207q0 125 90 212q89 86 211 121q120 34 258 34q123 0 273 -21q151 -21 203 -39v-238q-183 76 -387 76q-146 0 -234 -46t-88 -138q0 -94 66 -190t197 -227q188 -188 334 -275q3 0 9 2q125 136 125 318 q0 103 -43 188h318q35 -85 35 -178q0 -240 -162 -424l4 -10l-5 -1q173 -19 324 27v-261q-90 -39 -195 -38q-162 0 -371 102h-4q-211 -102 -493 -102q-158 0 -299 30t-255 90q-113 60 -180 158q-66 97 -66 222zM384 502q0 -109 87 -187t195 -108t212 -30h1q132 0 246 41v10 q-164 114 -311 249q-160 145 -243 249q-4 0 -6 2q-83 -20 -132 -84t-49 -142z" />
<glyph unicode="'" horiz-adv-x="450" d="M80 1434h291l-23 -535h-248z" />
<glyph unicode="(" horiz-adv-x="960" d="M80 753q0 337 183 563q183 227 515 317l103 -215q-219 -73 -339 -245q-121 -172 -122 -420q0 -251 121 -423q122 -173 340 -246l-103 -214q-332 92 -515 320t-183 563z" />
<glyph unicode=")" horiz-adv-x="960" d="M80 81q218 73 340 246q121 172 121 423q-1 249 -122 421q-120 172 -339 245l102 215q332 -90 515 -318t183 -562t-183 -562t-515 -320l-102 215v-3z" />
<glyph unicode="*" horiz-adv-x="1210" d="M80 698l340 181v10l-340 182l100 174l328 -203l8 5l-12 387h201l-13 -387l10 -5l328 203l100 -174l-342 -182v-10l342 -181l-100 -174l-328 203l-10 -4l13 -387h-201l12 387l-8 4l-328 -203z" />
<glyph unicode="+" horiz-adv-x="1497" d="M80 598v238h536v450h263v-450h538v-238h-538v-451h-263v451h-536z" />
<glyph unicode="," horiz-adv-x="569" d="M81 156q0 82 57 130t147 48l1 -2q92 0 147 -55q56 -56 56 -151q0 -130 -79 -240q-80 -111 -169 -150l-97 114q43 26 76 59q31 31 39 50l6 21q-77 0 -130 49q-54 49 -54 127z" />
<glyph unicode="-" horiz-adv-x="1241" d="M80 598v238h1081v-238h-1081z" />
<glyph unicode="." horiz-adv-x="571" d="M81 158q0 82 57 130t147 48q92 0 149 -48t57 -130t-57 -130t-149 -48q-90 0 -147 48t-57 130z" />
<glyph unicode="/" horiz-adv-x="1193" d="M45 0l766 1434h338l-766 -1434h-338z" />
<glyph unicode="0" horiz-adv-x="1880" d="M80 716q0 341 230 539t630 198l-2 -2q400 0 630 -198t230 -538t-229 -538t-630 -198t-630 198t-229 539zM419 716q0 -240 144 -370q145 -131 377 -131v-1q230 0 375 131q144 130 144 371q0 240 -144 372t-375 132q-233 0 -377 -132t-144 -372z" />
<glyph unicode="1" horiz-adv-x="946" d="M45 897v219q157 0 266 81t111 237h321v-1434h-335v983h-9q-137 -86 -354 -86z" />
<glyph unicode="2" horiz-adv-x="1695" d="M91 198q-3 99 39 195t114 174t204 138q133 61 311 89q262 43 358 84q140 57 142 149q0 96 -128 144q-127 48 -351 48q-142 0 -277 -22q-139 -23 -206 -45l-70 -23l2 252q68 26 238 50q172 24 352 24q772 0 772 -430q0 -77 -27 -138t-86 -105q-56 -41 -111 -73 q-53 -30 -144 -54t-141 -36q-41 -10 -141 -28q-99 -17 -154 -31q-60 -15 -135 -42t-117 -63q-43 -37 -68 -93q-26 -57 -18 -131l1167 2l-1 -236h-1505q-16 98 -19 201z" />
<glyph unicode="3" horiz-adv-x="1720" d="M95 35v237q79 -28 261 -51q177 -22 329 -22q269 -1 435 63t166 168q0 211 -518 222q-264 4 -435 -14v199h362q241 1 383 53q141 51 141 149q0 102 -135 147t-394 45q-116 0 -285 -18q-166 -18 -243 -38v229q83 17 265 33q189 17 296 17q827 0 827 -369q0 -221 -301 -317 v-12v-3q369 -89 369 -354q0 -207 -245 -315t-650 -108q-162 0 -348 16q-194 17 -280 43z" />
<glyph unicode="4" horiz-adv-x="1869" d="M27 309v201l1149 924h315v-891h299v-234h-299v-309h-336v309h-1128zM408 543h747v585h-10l-737 -575v-10z" />
<glyph unicode="5" horiz-adv-x="1748" d="M78 108v247q62 -38 280 -90q217 -52 456 -52q208 0 362 69q155 69 155 184q0 124 -141 186q-142 62 -369 62q-141 0 -316 -24t-253 -57l-139 65l2 736h1437v-236l-1143 -3l-2 -365l8 -4q258 109 597 109q276 0 465 -120t189 -351q0 -221 -214 -353t-595 -132 q-147 0 -333 27q-187 27 -305 57q-119 30 -141 45z" />
<glyph unicode="6" horiz-adv-x="1945" d="M108 708q0 219 130 391q131 173 352 264q223 92 494 92q172 0 318 -21t198 -36q54 -16 72 -25v-248q-15 10 -73 31q-57 21 -190 45q-134 24 -274 24l-5 -2q-287 0 -475 -118t-196 -327l8 -4q95 82 258 129q162 46 356 46q348 0 552 -120q205 -120 206 -331 q0 -172 -120 -292q-119 -119 -303 -172q-183 -52 -404 -54q-414 -1 -658 192t-246 536zM475 501q0 -111 141 -198t374 -87q239 0 376 80q136 79 136 201q0 130 -142 194q-144 65 -372 65v-1q-117 2 -229 -25q-113 -27 -199 -87q-85 -60 -85 -142z" />
<glyph unicode="7" horiz-adv-x="1562" d="M45 1196v238h1473v-201l-856 -1233h-383l841 1188v8h-1075z" />
<glyph unicode="8" horiz-adv-x="1902" d="M98 393q0 257 385 357v10q-325 88 -324 315q0 178 214 277q215 99 576 99t575 -99q215 -99 215 -277q0 -225 -326 -315v-10q185 -45 285 -136q101 -92 101 -222q0 -197 -229 -305q-230 -108 -621 -108q-392 0 -619 109q-228 110 -228 309zM427 425q0 -104 141 -167 t380 -63q237 0 378 65q140 65 140 167q0 111 -139 171t-379 60l-1 -2q-241 0 -381 -60q-139 -60 -139 -171zM488 1031q0 -91 126 -144q127 -53 333 -53q204 0 331 53q126 53 126 144q0 90 -125 144q-126 55 -332 56q-208 0 -333 -55q-126 -56 -126 -145z" />
<glyph unicode="9" horiz-adv-x="1947" d="M102 934q0 172 121 292q121 119 305 172q183 52 404 54q414 2 659 -192t246 -535q0 -219 -130 -391t-352 -265t-495 -93q-172 0 -318 21t-198 36q-49 14 -73 26v248q14 -9 74 -31q57 -21 191 -45q133 -24 275 -24l-1 1q287 0 476 117t197 326l-8 4q-95 -83 -258 -129 q-162 -46 -357 -46q-349 0 -552 121q-205 122 -206 333zM436 932q0 -128 143 -193q141 -64 372 -64l-2 -3q117 -2 229 25q113 27 199 87q85 60 85 143q0 111 -140 198t-374 87q-240 0 -376 -79t-136 -201z" />
<glyph unicode=":" horiz-adv-x="571" d="M81 158q0 82 57 130t147 48q92 0 149 -48t57 -130t-57 -130t-149 -48q-90 0 -147 48t-57 130zM81 964q0 81 57 129t147 48q92 0 149 -48t57 -129t-57 -129t-149 -48q-90 0 -147 48t-57 129z" />
<glyph unicode=";" horiz-adv-x="571" d="M81 156q0 82 57 130t147 48l1 -2q92 0 147 -55q56 -56 56 -151q0 -130 -79 -240q-80 -111 -169 -150l-97 114q43 26 76 59q31 31 39 50l6 21q-77 0 -130 49q-54 49 -54 127zM82 962q0 81 57 129t147 48q92 0 149 -48t57 -129t-57 -129t-149 -48q-90 0 -147 48t-57 129z " />
<glyph unicode="&#x3c;" horiz-adv-x="1218" d="M80 588v327l1059 340v-319l-717 -178v-13l717 -180v-317z" />
<glyph unicode="=" horiz-adv-x="1517" d="M80 354v242h1358v-242h-1358zM80 909v240h1358v-240h-1358z" />
<glyph unicode="&#x3e;" horiz-adv-x="1218" d="M80 248v317l717 180v13l-717 178v319l1059 -340v-327z" />
<glyph unicode="?" horiz-adv-x="1472" d="M79 1112v234q25 12 72 30t196 48q150 30 312 30l-3 -5q348 0 541 -109t193 -297q-5 -355 -574 -404l-20 -197h-277l-35 332q320 0 446 57t126 174q0 96 -99 159t-297 63q-145 0 -293 -29q-145 -28 -216 -57zM459 147q0 78 55 124t144 46h-2q89 0 143 -45t54 -125 q0 -79 -54 -126q-53 -46 -142 -46q-91 0 -144 46q-54 47 -54 126z" />
<glyph unicode="@" horiz-adv-x="2320" d="M114 568q18 420 309 651t770 231l-2 2q317 0 548 -102q232 -102 356 -303q124 -200 112 -482q-19 -451 -426 -450q-272 0 -351 184h-9q-57 -83 -157 -135q-101 -53 -231 -53q-213 0 -341 123t-119 332t148 333t357 124q121 0 219 -50q97 -49 147 -135h10l25 147h254 l-25 -543q-6 -176 168 -180q182 0 195 303q17 354 -216 554t-666 200q-431 2 -675 -196q-245 -198 -261 -556q-16 -352 216 -553q233 -201 660 -201q157 0 321 30q162 30 249 71v-151q-219 -82 -578 -82q-314 0 -546 101t-353 303q-122 203 -108 483zM845 567 q-6 -119 72 -186q77 -67 206 -67t218 72t95 183l1 -4q5 111 -78 183t-211 72t-213 -67t-90 -186z" />
<glyph unicode="A" horiz-adv-x="1943" d="M23 0l714 1434h469l715 -1434h-360l-142 283h-895l-141 -283h-360zM625 506h694l-342 684h-10z" />
<glyph unicode="B" horiz-adv-x="1982" d="M203 0v1434l1033 -2q291 0 435 -96t144 -272q0 -236 -252 -317v-11q317 -72 317 -350q0 -186 -144 -286q-143 -100 -433 -100h-1100zM540 217h688l1 -2q137 0 219 54q83 54 83 159t-84 159t-221 54h-686v-424zM541 823h620q136 0 221 50q84 49 84 144t-84 144 q-83 49 -221 49h-620v-387z" />
<glyph unicode="C" horiz-adv-x="1878" d="M108 716q0 344 261 540q262 197 756 197q178 0 355 -36q178 -36 296 -93v-291q-82 79 -261 132q-180 53 -363 53q-322 0 -516 -128q-193 -127 -193 -374q0 -244 194 -373q193 -129 516 -129q193 0 381 56q186 56 270 144v-295l-3 -1q-115 -61 -305 -100 q-188 -39 -372 -39q-497 0 -757 197q-259 196 -259 540z" />
<glyph unicode="D" horiz-adv-x="2045" d="M203 0v1434l844 -2q432 0 661 -190t229 -526t-229 -526t-661 -190h-844zM538 233h493q267 0 418 122q150 121 150 359t-150 359q-151 122 -418 122h-493v-962z" />
<glyph unicode="E" horiz-adv-x="1937" d="M203 0v1434h1601v-238h-1265v-369h1114v-213h-1114v-376h1304v-238h-1640z" />
<glyph unicode="F" horiz-adv-x="1859" d="M203 0v1434h1601v-238h-1265v-465h1132v-229h-1132v-502h-336z" />
<glyph unicode="G" horiz-adv-x="1974" d="M109 717q0 344 262 540q263 197 757 197q345 0 651 -113v-251q-247 129 -623 129q-324 0 -517 -128q-192 -127 -192 -374q0 -245 189 -376q188 -130 515 -130q215 0 389 90v299h-573v205h907l1 -649q-122 -71 -340 -123q-221 -53 -406 -53q-497 0 -759 197 q-261 197 -261 540z" />
<glyph unicode="H" horiz-adv-x="2078" d="M203 0v1434h336v-588h1001v588h336v-1434h-336v588h-1001v-588h-336z" />
<glyph unicode="I" horiz-adv-x="741" d="M203 0v1434h336v-1434h-336z" />
<glyph unicode="J" horiz-adv-x="638" d="M-244 -198q191 0 281 57t90 225v1353h336v-1342q0 -100 -18 -178q-18 -76 -47 -132q-28 -53 -81 -91q-52 -37 -103 -58t-133 -33q-83 -12 -151 -15q-69 -3 -174 -3v217z" />
<glyph unicode="K" horiz-adv-x="1988" d="M203 0v1434h336v-703l10 2l887 701h462l-731 -598l811 -836h-432l-635 641l-372 -301v-340h-336z" />
<glyph unicode="L" horiz-adv-x="1794" d="M203 0v1434h336v-1196h1224v-238h-1560z" />
<glyph unicode="M" horiz-adv-x="2504" d="M203 0v1434h450l594 -1094h10l596 1094h449v-1434h-332v1022h-10l-559 -1022h-295l-561 1022h-10v-1022h-332z" />
<glyph unicode="N" horiz-adv-x="2097" d="M203 0v1434h346l1012 -1006h10v1006h323v-1434h-350l-1007 1006h-11v-1006h-323z" />
<glyph unicode="O" d="M108 716q0 342 234 540t671 198h-2q437 0 671 -198t234 -540t-234 -540t-670 -198t-670 198t-234 540zM438 717q0 -244 153 -373t423 -129h-1q269 0 420 129q152 129 152 373t-151 373q-152 129 -420 129q-270 0 -423 -129t-153 -373z" />
<glyph unicode="P" horiz-adv-x="1929" d="M203 0v1434h952q705 0 705 -502q0 -500 -705 -500h-616v-432h-336zM539 667h614q174 0 273 66t99 199q0 134 -99 200t-273 66h-614v-531z" />
<glyph unicode="Q" d="M109 718q0 342 234 540t671 198t671 -198t234 -540q0 -233 -136 -402q-137 -170 -378 -240l1 -10l371 -76l-58 -236q-767 196 -1023 258q-287 71 -437 252q-150 182 -150 454zM438 717q0 -244 153 -373t424 -129q268 0 421 129t153 373t-153 373t-421 129 q-270 0 -423 -129t-153 -373h-1z" />
<glyph unicode="R" horiz-adv-x="1998" d="M203 -1v1434h948q707 0 707 -420q0 -262 -289 -367v-10q145 -27 202 -105q58 -79 80 -250l2 -6q6 -40 11 -82q6 -53 9 -70q4 -22 9 -47q6 -29 15 -46q7 -12 23 -34h-350q-8 12 -15 27q-8 15 -12 34q-4 17 -9 34q-4 15 -9 42t-6 42q-2 23 -7 51q-5 31 -7 55 q-17 139 -99 189q-82 49 -288 49h-579v-520h-336zM541 729h612l-1 -1q172 0 273 60t101 177q0 227 -373 227h-612v-463z" />
<glyph unicode="S" horiz-adv-x="1884" d="M85 128v272q150 -70 390 -126q238 -55 461 -55q530 0 530 189q0 96 -124 135q-122 38 -426 61q-112 9 -222 20q-81 8 -193 29q-105 19 -171 48q-65 28 -124 72t-86 107t-27 147q0 426 844 426q238 0 455 -41q212 -40 294 -74v-260q-102 44 -309 90q-205 46 -439 46 q-498 0 -498 -167q0 -97 172 -134q98 -22 373 -41l4 -1q174 -13 282 -28q113 -16 224 -47q109 -30 173 -75q65 -45 102 -115q38 -71 38 -168q0 -219 -213 -339t-622 -120q-229 0 -477 43q-253 44 -411 106z" />
<glyph unicode="T" horiz-adv-x="1677" d="M29 1196v238h1620v-238h-643v-1196h-336v1196h-641z" />
<glyph unicode="U" horiz-adv-x="2025" d="M178 667v766h334v-742q0 -238 132 -358t370 -120q236 0 366 121q131 122 131 358v742h336v-762q0 -329 -218 -511q-217 -181 -617 -181v-1q-398 0 -615 181q-217 182 -219 507z" />
<glyph unicode="V" horiz-adv-x="1918" d="M23 1434h366l565 -1160h11l565 1160h366l-702 -1434h-469z" />
<glyph unicode="W" horiz-adv-x="2557" d="M49 1434h357l352 -1057h10l346 1057h330l346 -1057h12l352 1057h357l-469 -1434h-424l-332 987h-12l-332 -987h-426z" />
<glyph unicode="X" horiz-adv-x="1886" d="M29 0l682 743v7l-635 684h389l475 -508h8l473 508h389l-634 -684v-7l682 -743h-390l-520 563h-10l-520 -563h-389z" />
<glyph unicode="Y" horiz-adv-x="1964" d="M27 1434h376l576 -656h8l574 656h376l-786 -910v-524h-336v524z" />
<glyph unicode="Z" horiz-adv-x="1798" d="M70 0v207l1083 983v10h-1042v234h1570v-207l-1091 -983v-11h1134v-233h-1654z" />
<glyph unicode="[" horiz-adv-x="933" d="M203 0v1434h651v-240h-315v-956h315v-238h-651z" />
<glyph unicode="\" horiz-adv-x="1193" d="M45 1434h338l766 -1434h-338z" />
<glyph unicode="]" horiz-adv-x="933" d="M80 0v238h315v956h-315v240h651v-1434h-651z" />
<glyph unicode="^" horiz-adv-x="1167" d="M80 471l309 963h389l309 -963h-290l-207 686h-12l-207 -686h-291z" />
<glyph unicode="_" horiz-adv-x="1304" d="M-4 0h1313v-238h-1313v238z" />
<glyph unicode="`" horiz-adv-x="808" d="M80 1591h383l266 -297h-231z" />
<glyph unicode="a" horiz-adv-x="1654" d="M74 349q0 355 647 357q225 0 438 -68v22q0 220 -440 222q-152 0 -304 -34q-155 -34 -234 -75v258q68 29 252 56q186 27 325 27l-5 -1q361 0 548 -112q188 -113 188 -331v-670h-287l-22 143h-8q-163 -162 -524 -162h-4q-270 0 -420 96t-150 272zM403 362q0 -89 89 -133 q87 -43 228 -43q221 0 327 73q107 74 107 195v22q-170 58 -354 60q-397 0 -397 -174z" />
<glyph unicode="b" horiz-adv-x="1794" d="M173 0v1495h328v-559h10q181 178 510 178q315 0 495 -156t180 -409l-1 1q0 -258 -180 -414t-495 -156q-332 0 -519 198h-11l-20 -178h-297zM503 553q0 -161 121 -258t306 -97q194 0 312 94q119 95 119 258l-2 1q0 162 -119 255q-118 93 -311 93q-187 0 -306 -94 q-120 -95 -120 -252z" />
<glyph unicode="c" horiz-adv-x="1531" d="M95 547q0 265 205 416q206 152 603 152q137 0 291 -22q158 -23 236 -60v-260q-78 51 -219 84t-271 33q-242 0 -375 -88q-134 -89 -134 -255q0 -164 137 -254q136 -90 375 -90q161 0 303 36q144 36 216 85l-3 -260q-87 -37 -246 -61q-157 -24 -307 -24q-397 0 -604 153 t-207 415z" />
<glyph unicode="d" horiz-adv-x="1794" d="M97 546q0 254 180 410t495 156q329 0 510 -178h10v559h328v-1495h-297l-20 178h-11q-186 -198 -512 -198h-7q-315 0 -495 156t-180 414zM432 548q0 -163 119 -258q118 -94 311 -94q185 0 306 97t121 258q0 157 -120 252q-119 94 -307 94q-194 0 -312 -93t-118 -255v-1z " />
<glyph unicode="e" horiz-adv-x="1667" d="M97 544q0 257 201 413t539 156q342 0 543 -147t201 -401l-3 -114h-1130q31 -134 158 -193q125 -58 359 -58q135 0 290 30t246 69v-235q-102 -34 -285 -60q-179 -25 -334 -25q-370 0 -578 146q-207 145 -207 419zM448 629l785 -1q-6 128 -112 198q-107 71 -288 71 q-155 0 -261 -73t-124 -195z" />
<glyph unicode="f" horiz-adv-x="1310" d="M22 881v209h362v45q0 215 183 317t510 102q163 0 231 -6v-227q-55 4 -186 4h-3q-106 0 -165 -7q-63 -8 -123 -30q-61 -23 -89 -72q-28 -50 -30 -126h596v-209h-596l2 -881h-330v881h-362z" />
<glyph unicode="g" horiz-adv-x="1794" d="M99 546q0 256 177 412t488 156q352 0 532 -201h9l20 177l296 -3v-1033q0 -235 -212 -354q-211 -118 -582 -118q-161 0 -351 27q-193 27 -279 55v258q245 -100 594 -100q255 0 382.5 69.5t126.5 208.5v78h-10q-185 -200 -523 -200h-3q-311 0 -488 156t-177 412zM430 544 q0 -161 119 -256q118 -94 312 -94h-4q191 0 309 96t118 258q0 160 -117 253t-308 93q-195 0 -312 -93t-117 -257z" />
<glyph unicode="h" horiz-adv-x="1853" d="M172 0v1495h330v-563h10q190 182 537 182v1q303 0 473 -153t170 -411v-551h-334v551q0 164 -118 255t-313 91t-310 -90t-115 -252v-555h-330z" />
<glyph unicode="i" horiz-adv-x="739" d="M146 1436q0 76 56 126q55 49 152 49t152 -49t55 -126h-2q0 -74 -55 -123t-151 -49q-97 0 -152 49t-55 123zM188 0v1090h330v-1090h-330z" />
<glyph unicode="j" horiz-adv-x="722" d="M-160 -199q74 0 128 9q53 9 103 33q49 24 75 72q26 49 26 120v1055l329 -3v-1045q0 -91 -18 -163t-45 -120t-78 -81q-52 -33 -97 -51q-48 -19 -125 -29q-78 -11 -139 -12q-82 -2 -159 -2v217zM128 1433q0 76 56 126q55 49 152 49t152 -49q56 -50 56 -126h-4 q0 -74 -55 -123t-151 -49t-151 49t-55 123z" />
<glyph unicode="k" horiz-adv-x="1708" d="M172 0v1495h330v-909l712 504h422l-600 -441l664 -649h-414l-495 481l-289 -205v-276h-330z" />
<glyph unicode="l" horiz-adv-x="684" d="M178 0v1495h328v-1495h-328z" />
<glyph unicode="m" horiz-adv-x="2734" d="M170 0v1090h299l18 -185h11q155 209 468 209q358 0 493 -233h10q170 233 522 233l-3 -1q293 0 437 -150t144 -412v-551h-331v551q0 163 -91 254q-92 92 -267 92q-155 0 -250 -94q-96 -95 -96 -238l2 -565h-334v551q0 160 -93 253t-265 93q-156 0 -250 -96 q-94 -95 -94 -250v-551h-330z" />
<glyph unicode="n" horiz-adv-x="1853" d="M172 0v1090h297l18 -160h11q194 184 549 184h-1q303 0 474 -153t171 -411v-549h-334v549q0 164 -118 255q-119 92 -312 92q-192 0 -310 -92q-117 -91 -117 -252v-553h-328z" />
<glyph unicode="o" horiz-adv-x="1693" d="M97 551q0 260 202 413q203 153 546 153q347 0 548 -153t201 -415t-201 -415t-547 -153q-344 0 -546 153t-202 413zM430 547q0 -167 118 -258q119 -92 298 -92t298 92q118 91 118 258t-118 258t-298 91q-183 0 -299 -91q-117 -91 -117 -258z" />
<glyph unicode="p" horiz-adv-x="1794" d="M170 -394v1483h297l20 -166h11q180 190 520 190q317 0 497 -153t180 -409q0 -257 -180 -414q-179 -157 -495 -157l-2 -1q-320 0 -510 184h-10v-557h-328zM501 548q0 -158 121 -255t306 -97q194 0 312 96q119 96 119 258t-117 253q-116 91 -312 91h-3q-186 0 -306 -93 t-120 -253z" />
<glyph unicode="q" horiz-adv-x="1794" d="M95 551q0 257 180 410t497 153q340 0 520 -190h11l20 166h297v-1483h-328v557h-10q-190 -184 -510 -184l-2 -1q-314 0 -495 158q-180 157 -180 414zM431 551q0 -162 119 -258q118 -96 311 -96q185 0 306 97t121 255q0 160 -120 253t-306 93h-2q-196 0 -312 -91 q-117 -92 -117 -253z" />
<glyph unicode="r" horiz-adv-x="1062" d="M172 0v1090h297l25 -234h10q154 258 540 258l-1 1q1 -225 3 -264q-23 2 -47 2l-193 -27q-122 -33 -213 -121q-91 -89 -93 -213v-492h-328z" />
<glyph unicode="s" horiz-adv-x="1517" d="M73 64v235q328 -108 695 -108h7q344 0 344 120q0 66 -88 93q-91 28 -294 41q-145 10 -253 30q-111 20 -204 55q-97 36 -146 97q-50 62 -50 147q0 160 178 250t490 90q339 0 576 -61v-224q-262 76 -553 76q-369 0 -369 -109q0 -78 159 -100q43 -6 234 -18l1 -2 q313 -18 481 -95q166 -76 166 -239q0 -166 -159 -265t-513 -99q-418 0 -702 86z" />
<glyph unicode="t" horiz-adv-x="1310" d="M22 880v209h350v344h327v-344h562v-209h-562v-367q0 -164 85 -237t291 -73l222 16v-221q-133 -18 -241 -18q-354 0 -519 114t-165 407v379h-350z" />
<glyph unicode="u" horiz-adv-x="1853" d="M160 541v549h334v-549q0 -164 117 -254t314 -90q195 0 312 90t117 250v553h327v-1090h-297l-18 160h-10q-190 -180 -549 -180l-3 -1q-304 0 -474 152t-170 410z" />
<glyph unicode="v" horiz-adv-x="1697" d="M33 1090h368l443 -822h10l442 822h369l-600 -1090h-432z" />
<glyph unicode="w" horiz-adv-x="2308" d="M51 1090h340l291 -783h10l314 783h294l314 -783h10l293 783h340l-420 -1090h-375l-303 715h-10l-305 -715h-375z" />
<glyph unicode="x" horiz-adv-x="1662" d="M39 0l543 557v8l-510 525h387l368 -388h9l368 388h387l-510 -525v-8l543 -557h-383l-405 410h-9l-405 -410h-383z" />
<glyph unicode="y" horiz-adv-x="1675" d="M33 1090h368l459 -754h10l404 754h368l-821 -1483h-336l226 428z" />
<glyph unicode="z" horiz-adv-x="1589" d="M63 0v166l904 700v11h-877v213h1383v-177l-881 -690v-10h934v-213h-1463z" />
<glyph unicode="{" horiz-adv-x="1024" d="M82 658v189q112 -5 150 81q38 87 38 264q0 96 18 170t63 137t131 96t210 33q123 0 250 -39l2 -237h-4q-207 58 -295 -43q-49 -56 -49 -166q0 -303 -150 -387v-11q150 -83 150 -385l-3 1q0 -85 32 -140q31 -54 77 -72q45 -18 98 -18q55 0 87 7q35 8 51 12l4 2l-2 -238 q-126 -41 -249 -41t-210 35q-86 35 -131 98t-63 137q-18 73 -18 170q0 180 -37 264q-38 85 -150 81z" />
<glyph unicode="|" horiz-adv-x="679" d="M203 -115v1663h274v-1663h-274z" />
<glyph unicode="}" horiz-adv-x="1024" d="M78 1348l2 237q128 39 250 39q124 0 210 -33t131 -96t63 -137t18 -170q0 -177 38 -264q38 -86 150 -81v-189q-112 4 -150 -80q-37 -83 -37 -263q0 -95 -18 -169t-63 -137t-131 -98q-87 -35 -210 -35t-249 41l-2 238l4 -2q207 -58 295 43q49 58 49 168v-4q0 302 150 385 v11q-150 84 -150 387q0 108 -43 164q-43 57 -120 60t-108 0t-75 -15h-4z" />
<glyph unicode="~" horiz-adv-x="1368" d="M80 794q188 143 584 51q118 -29 186 -39q66 -10 159 5q92 15 168 73l110 -244q-196 -147 -596 -53q-119 29 -186 39q-66 10 -159 -5q-92 -15 -168 -72l-98 246v-1z" />
<glyph unicode="&#xa1;" horiz-adv-x="555" d="M79 1264q0 78 55 124t144 46q90 0 143 -46q54 -46 54 -126q0 -78 -55 -124t-144 -46h-1q-89 0 -142 46q-54 46 -54 126zM88 -20l49 983h273l59 -983h-381z" />
<glyph unicode="&#xa2;" horiz-adv-x="1507" d="M78 712q0 233 169 374q170 142 499 164v183h213v-181q289 -7 436 -75v-242q-77 49 -216 81q-137 31 -268 31q-238 0 -370 -87t-132 -247q0 -158 134 -245q133 -87 371 -87q163 0 300 34q140 35 213 81v-240q-168 -78 -466 -84v-172l-215 -1v176q-328 23 -498 165 q-170 143 -170 372z" />
<glyph unicode="&#xa3;" horiz-adv-x="1871" d="M80 614v211h338v222q0 187 192 297q193 110 539 110q163 0 308 -27q148 -27 210 -52l64 -26l-2 -236q-33 15 -77 32q-49 19 -203 51q-155 32 -300 32q-200 0 -298 -61q-99 -61 -99 -159v-183h893v-211h-893v-139l-1 1q0 -145 -101 -228v-8h1141v-240h-1597v221 q88 0 156 74t68 156v163h-338z" />
<glyph unicode="&#xa4;" horiz-adv-x="1613" d="M82 1182l153 174l273 -232q118 66 300 66t300 -66l272 232l155 -171l-236 -199q76 -106 76 -267t-76 -267l236 -199l-154 -174l-272 231q-119 -66 -300 -66t-300 65l-273 -231l-153 174l233 199q-76 110 -76 266q0 155 75 266zM490 720q0 -136 84 -206q85 -71 234 -71v-2 q146 0 231 71q84 70 84 206t-84 206q-85 71 -231 71q-151 0 -234 -70q-84 -71 -84 -205z" />
<glyph unicode="&#xa5;" horiz-adv-x="2070" d="M80 1434h377l575 -656h8l574 656h377l-688 -795v-10h438v-133h-537v-136h537v-135h-537v-225h-336v225h-538v135h538v136h-538v133h440v10z" />
<glyph unicode="&#xa6;" horiz-adv-x="688" d="M203 -88v629h282v-629h-282zM203 903v619h282v-619h-282z" />
<glyph unicode="&#xa7;" horiz-adv-x="1499" d="M75 1071q0 176 188 278t476 102q181 0 344 -30t213 -57l3 -225q-56 32 -193 63q-138 32 -316 33q-140 1 -255 -36q-116 -38 -116 -111q0 -67 87 -94q85 -26 273 -40q147 -11 252 -31q109 -21 201 -60t138 -105q47 -67 47 -156l-1 -4q0 -180 -205 -282q205 -90 205 -271 q0 -174 -189 -276t-475 -102q-154 0 -336 27t-225 51v227q48 -28 199 -58q147 -29 312 -31q140 -1 255 36q116 38 116 111q0 70 -87 97t-273 39q-637 40 -637 360q0 184 192 279q-193 90 -193 266zM386 572q0 -80 102 -119t278 -39l-2 -2q348 0 348 149q0 77 -103 114 q-105 38 -270 38q-73 0 -135 -5q-59 -5 -110 -19q-55 -15 -81 -43q-27 -28 -27 -74z" />
<glyph unicode="&#xa8;" horiz-adv-x="1040" d="M80 1418q0 66 44 101t117 35v-1q73 0 117 -36t44 -99t-44 -99t-117 -36t-117 36t-44 99zM637 1417q0 66 44 101t117 35v-1q73 0 118 -36t45 -99t-45 -99t-118 -36q-74 0 -117 36q-44 36 -44 99z" />
<glyph unicode="&#xa9;" horiz-adv-x="1718" d="M83 715q0 311 207 489q208 179 572 179v2q362 0 570 -180t208 -489q0 -310 -207 -490t-572 -180q-361 0 -570 180q-208 180 -208 489zM239 716q0 -250 167 -391q166 -141 453 -141l1 -1q286 0 453 141t167 391t-167 390q-166 139 -452 141q-285 0 -454 -140 q-168 -140 -168 -390zM441 717q0 168 127 261q128 93 345 93q126 0 222 -29v-159q-79 35 -211 35q-121 0 -199 -51t-78 -151l1 -1q0 -100 77 -151t198 -51q164 0 255 49v-166q-102 -35 -265 -35q-217 0 -345 95q-127 94 -127 261z" />
<glyph unicode="&#xaa;" horiz-adv-x="985" d="M78 1009q0 99 94 148t258 49q141 0 261 -43v17q0 135 -241 135q-86 0 -176 -18q-88 -18 -133 -41v148q37 16 147 33q113 17 189 17l-2 -3q428 0 428 -252v-385h-182l-16 101h-7q-80 -111 -309 -111q-140 0 -226 53q-85 52 -85 152zM287 1020q0 -51 49 -78q50 -27 123 -27 l1 1q118 0 173 43q56 44 56 112v14q-95 33 -189 33q-213 0 -213 -98z" />
<glyph unicode="&#xab;" horiz-adv-x="1427" d="M80 717l442 553h287l-447 -549v-8l447 -549h-287zM621 717l440 553h287l-445 -549v-8l445 -549h-287z" />
<glyph unicode="&#xac;" horiz-adv-x="1368" d="M80 770v242h1208v-590h-276v348h-932z" />
<glyph unicode="&#xad;" horiz-adv-x="1241" d="M80 598v238h1081v-238h-1081z" />
<glyph unicode="&#xae;" horiz-adv-x="1161" d="M79 1007q0 203 136 324q137 122 364 122q229 0 365 -121q137 -122 137 -325t-137 -325q-136 -121 -364 -121q-227 0 -364 122q-136 121 -136 324h-1zM182 1007q0 -163 112 -256t285 -93v-1q173 0 285 92q111 91 111 258t-111 258q-112 92 -285 92q-172 0 -285 -92 q-112 -91 -112 -258zM376 768v475h254q91 0 144 -38q52 -37 52 -107q0 -106 -120 -135l122 -195h-127l-104 176h-109v-176h-112zM488 1033h132q90 0 90 63t-90 63l-132 1v-127z" />
<glyph unicode="&#xaf;" horiz-adv-x="1060" d="M80 1294v195h901v-195h-901z" />
<glyph unicode="&#xb0;" horiz-adv-x="874" d="M46 1114q0 156 102 248q103 92 272 92t272 -92q102 -91 102 -248q0 -156 -102 -249t-272 -93t-272 93t-102 249zM232 1114q0 -82 53 -127t135 -45h-1q82 0 133 45t51 127t-51 127t-133 45q-83 0 -135 -45t-52 -127z" />
<glyph unicode="&#xb1;" horiz-adv-x="1452" d="M80 0v195h1292v-195h-1292zM90 711v237h506v371h264v-371h486v-237h-486v-371h-264v371h-506z" />
<glyph unicode="&#xb2;" horiz-adv-x="1081" d="M90 661q-39 175 50 308t339 173q196 32 248 69q37 27 37 60q0 102 -272 102q-82 0 -165 -12q-85 -12 -123 -25l-41 -14v164q191 43 357 43q467 0 467 -260q0 -46 -16 -82q-16 -37 -51 -64q-34 -27 -66 -45t-87 -33q-37 -10 -85 -22q-30 -7 -87 -18q-137 -23 -210 -63 q-74 -41 -66 -131h682l-2 -150h-909z" />
<glyph unicode="&#xb3;" horiz-adv-x="1081" d="M81 681v156q44 -16 155 -31q108 -15 194 -15q160 0 253 36t93 94q0 119 -295 125q-184 0 -256 -9v127h213q299 5 299 114q0 106 -303 106q-176 0 -313 -34v149q130 29 339 29q500 0 498 -219q0 -131 -178 -191v-6l1 -2q221 -56 221 -211q0 -127 -147 -190t-395 -63 t-379 35z" />
<glyph unicode="&#xb4;" horiz-adv-x="808" d="M80 1294l266 297h383l-418 -297h-231z" />
<glyph unicode="&#xb5;" horiz-adv-x="1863" d="M171 -392v1483h334v-547q0 -161 116 -253q115 -91 315 -91q189 0 307 89t119 246v555h328v-1090h-299l-19 215h-10q-162 -235 -549 -234q-169 0 -306 51h-8v-424h-328z" />
<glyph unicode="&#xb6;" horiz-adv-x="2068" d="M70 940q0 230 170 362t465 132h1161v-1434h-289l2 1182h-248l2 -1182h-293l2 449h-323q-298 -2 -473 130q-176 132 -176 361zM417 937q0 -111 77 -177q76 -66 204 -66l344 3v482h-360q-124 0 -195 -67t-70 -175z" />
<glyph unicode="&#xb7;" horiz-adv-x="571" d="M81 717q0 84 57 138t147 54h-1q90 0 149 -54t59 -138t-58 -138t-148 -54q-88 0 -147 54q-58 54 -58 138z" />
<glyph unicode="&#xb8;" horiz-adv-x="583" d="M80 -375l178 414l246 -39l-228 -375h-196z" />
<glyph unicode="&#xb9;" horiz-adv-x="593" d="M81 1187v143q92 0 155 48q64 48 65 138l214 -1v-857h-223v574h-6q-82 -45 -205 -45z" />
<glyph unicode="&#xba;" horiz-adv-x="1032" d="M76 1131q0 151 117 236q118 86 320 86t320 -86q117 -85 117 -235t-117 -237t-319 -87t-319 87t-117 237zM291 1133q0 -90 63 -138t161 -48t161 48t63 138h-2q0 89 -63 138q-62 49 -160 49t-160 -49q-63 -49 -63 -138z" />
<glyph unicode="&#xbb;" horiz-adv-x="1427" d="M80 164l444 549v8l-444 549h287l440 -553l-440 -553h-287zM618 164l447 549v8l-447 549h287l443 -553l-443 -553h-287z" />
<glyph unicode="&#xbc;" horiz-adv-x="2279" d="M81 1105v143q92 0 155 48q64 48 65 138l214 -1v-859h-223v574h-6q-83 -43 -205 -43zM362 0l1053 1434h299l-1055 -1434h-297zM1135 178v131l682 547l208 2v-526h175v-154h-175v-178h-223v178h-667zM1383 331h420v325h-6l-414 -319v-6z" />
<glyph unicode="&#xbd;" horiz-adv-x="2392" d="M78 1103v145q92 0 155 48q64 48 65 138l216 -1v-859h-225v574h-4q-83 -45 -207 -45zM380 0l1057 1434h297l-1055 -1434h-299zM1400 0q-39 175 50 308t339 173q196 32 248 70q37 27 37 59q0 102 -273 103q-83 0 -165 -12t-123 -24l-41 -14v163q191 43 357 43 q467 0 467 -260q0 -46 -16 -82q-16 -37 -51 -64q-33 -26 -65 -45q-30 -18 -86 -33q-37 -10 -85 -22q-30 -7 -87 -18q-68 -12 -108 -24t-87 -33t-66 -54t-15 -82h682l-3 -152h-909z" />
<glyph unicode="&#xbe;" horiz-adv-x="2562" d="M81 599v156q44 -16 155 -31q108 -15 194 -15q160 0 253 36t93 96q0 117 -295 123q-185 0 -258 -9v127l215 2q299 0 299 113q0 104 -303 104q-63 0 -168 -11q-98 -10 -144 -23v151q150 29 338 29q500 -5 498 -222q0 -131 -178 -191v-6l-2 2q221 -56 221 -210 q-1 -128 -147 -192q-144 -64 -393 -64q-252 0 -378 35zM645 0l1053 1434h299l-1055 -1434h-297zM1417 178v131l682 547l209 2v-526h174v-154h-174v-178h-223v178h-668zM1663 334h420v325h-6l-414 -319v-6z" />
<glyph unicode="&#xbf;" horiz-adv-x="1472" d="M79 390q5 355 573 404l21 196h276l35 -332q-318 0 -445 -56q-126 -56 -126 -173q0 -96 99 -159t298 -63q145 0 293 29q146 29 218 57l72 28v-233q-25 -12 -72 -30t-196 -48q-150 -30 -312 -30l-2 3q-347 0 -540 110q-192 109 -192 297zM613 1285q0 79 54 126 q53 46 143 46q91 0 144 -46q54 -47 54 -126q0 -78 -55 -124t-144 -46q-88 0 -142 45t-54 125z" />
<glyph unicode="&#xc0;" horiz-adv-x="1943" d="M33 0l715 1434h469l714 -1434h-360l-141 283h-895l-142 -283h-360zM457 1903h383l266 -297h-232zM635 506h694l-342 684h-10z" />
<glyph unicode="&#xc1;" horiz-adv-x="1943" d="M33 0l715 1434h469l714 -1434h-360l-141 283h-895l-142 -283h-360zM635 506h694l-342 684h-10zM834 1606l266 297h383l-418 -297h-231z" />
<glyph unicode="&#xc2;" horiz-adv-x="1943" d="M33 0l715 1434h469l714 -1434h-360l-141 283h-895l-142 -283h-360zM475 1608l324 297h344l323 -297h-299l-196 172l-195 -172h-301zM635 506h694l-342 684h-10z" />
<glyph unicode="&#xc3;" horiz-adv-x="1943" d="M33 0l715 1434h469l714 -1434h-360l-141 283h-895l-142 -283h-360zM546 1861q46 39 95 57q47 18 107 16q58 -2 99 -9q49 -9 110 -25q15 -2 53 -13q35 -10 50 -13q27 -5 42 -8q36 -6 45 -5q10 1 38 3q26 1 45 11q10 5 42 23q18 10 49 32l78 -207q-61 -49 -136 -64 q-73 -15 -133 -7q-58 8 -150 33q-8 3 -51 13q-37 9 -51 12q-21 5 -43 8q-30 4 -45 3q-16 -2 -40 -3q-25 -1 -43 -9q-18 -7 -42 -21q-22 -12 -49 -33l-69 209zM635 506h694l-342 684h-10z" />
<glyph unicode="&#xc4;" horiz-adv-x="1943" d="M33 0l715 1434h469l714 -1434h-360l-141 283h-895l-142 -283h-360zM531 1730q0 66 44 101t117 35v-2q74 0 117 -36q44 -36 44 -99t-44 -99q-43 -36 -117 -36t-117 36q-44 36 -44 100zM635 506h694l-342 684h-10zM1086 1728q0 66 45 101q46 35 118 35v-2q73 0 117 -36 t44 -99t-44 -99t-117 -36t-118 36t-45 100z" />
<glyph unicode="&#xc5;" horiz-adv-x="1943" d="M33 0l715 1434h469l714 -1434h-360l-141 283h-895l-142 -283h-360zM635 506h694l-342 684h-10zM663 1832q0 112 86 174t222 62t222 -62t86 -174q0 -113 -86 -176q-85 -63 -222 -63t-222 63q-86 63 -86 176zM841 1830q0 -56 36 -87q35 -31 93 -31h-1q58 0 95 31t37 87 t-37 87t-94 31q-58 0 -93 -31q-36 -31 -36 -87z" />
<glyph unicode="&#xc6;" horiz-adv-x="3209" d="M-16 0l1329 1434h1763v-240h-1266v-367h1115v-213h-1115v-376h1305v-238h-1640v283h-842l-262 -283h-387zM829 506h646v684h-9z" />
<glyph unicode="&#xc7;" horiz-adv-x="1878" d="M108 716q0 344 261 540q262 197 756 197q178 0 355 -36q178 -36 296 -93v-291q-82 79 -261 132q-180 53 -363 53q-322 0 -516 -128q-193 -127 -193 -374q0 -244 194 -373q193 -129 516 -129q193 0 381 56q186 56 270 144v-295l-1 -2q-112 -58 -280 -95q-171 -38 -346 -42 l-215 -357h-197l156 365q-400 38 -606 229q-207 192 -207 499z" />
<glyph unicode="&#xc8;" horiz-adv-x="1937" d="M203 0v1434h1601v-238h-1265v-369h1114v-213h-1114v-376h1304v-238h-1640zM514 1903h383l266 -297h-231z" />
<glyph unicode="&#xc9;" horiz-adv-x="1937" d="M203 0v1434h1601v-238h-1265v-369h1114v-213h-1114v-376h1304v-238h-1640zM854 1606l266 297h383l-418 -297h-231z" />
<glyph unicode="&#xca;" horiz-adv-x="1937" d="M203 0v1434h1601v-238h-1265v-369h1114v-213h-1114v-376h1304v-238h-1640zM473 1608l324 297h344l323 -297h-299l-196 172l-195 -172h-301z" />
<glyph unicode="&#xcb;" horiz-adv-x="1937" d="M203 0v1434h1601v-238h-1265v-369h1114v-213h-1114v-376h1304v-238h-1640zM528 1728q0 66 44 101t117 35v-2q73 0 117 -36t44 -99t-44 -99t-117 -36t-117 36t-44 100zM1084 1730q0 66 45 101q46 35 118 35v-2q73 0 117 -36t44 -99t-44 -99t-117 -36t-118 36t-45 100z" />
<glyph unicode="&#xcc;" horiz-adv-x="741" d="M-162 1903h383l266 -297h-231zM203 0v1434h336v-1434h-336z" />
<glyph unicode="&#xcd;" horiz-adv-x="741" d="M203 0v1434h336v-1434h-336zM238 1606l266 297h383l-418 -297h-231z" />
<glyph unicode="&#xce;" horiz-adv-x="741" d="M-125 1608l324 297h344l323 -297h-299l-196 172l-195 -172h-301zM203 0v1434h336v-1434h-336z" />
<glyph unicode="&#xcf;" horiz-adv-x="741" d="M-69 1728q0 66 44 101t117 35v-2q74 0 117 -36q44 -36 44 -99t-44 -99q-43 -36 -117 -36t-117 36q-44 36 -44 100zM203 0v1434h336v-1434h-336zM488 1730q0 66 44 101t117 35v-2q73 0 117 -36t44 -99t-44 -99t-117 -36t-117 36t-44 100z" />
<glyph unicode="&#xd0;" horiz-adv-x="2287" d="M8 631v139h434v662h844q433 0 662 -190q230 -191 230 -526q0 -338 -229 -527t-661 -189l-846 -2v633h-434zM777 233h494q265 0 416 122q150 121 150 360q0 235 -150 357q-151 122 -415 122h-494v-424h469v-139h-469z" />
<glyph unicode="&#xd1;" horiz-adv-x="2097" d="M203 0v1434h346l1012 -1006h10v1006h323v-1434h-350l-1007 1006h-11v-1006h-323zM621 1861q46 39 95 57q47 18 107 16q59 -2 99 -9q49 -9 110 -25q13 -2 52 -13q38 -11 51 -13q2 0 16 -3t26 -5q35 -6 45 -5q12 1 39 3q26 1 45 11q10 5 42 23q18 10 49 32l78 -207 q-61 -49 -136 -64q-73 -15 -133 -7q-58 8 -150 33q-8 3 -51 13q-37 9 -51 12q-21 5 -43 8q-30 4 -45 3q-16 -2 -40 -3q-25 -1 -43 -9q-18 -7 -42 -21q-22 -12 -49 -33l-69 209z" />
<glyph unicode="&#xd2;" d="M108 716q0 342 234 540t671 198h-2q437 0 671 -198t234 -540t-234 -540t-670 -198t-670 198t-234 540zM438 717q0 -244 153 -373t423 -129h-1q269 0 420 129q152 129 152 373t-151 373q-152 129 -420 129q-270 0 -423 -129t-153 -373zM499 1903h383l266 -297h-231z" />
<glyph unicode="&#xd3;" d="M108 716q0 342 234 540t671 198h-2q437 0 671 -198t234 -540t-234 -540t-670 -198t-670 198t-234 540zM438 717q0 -244 153 -373t423 -129h-1q269 0 420 129q152 129 152 373t-151 373q-152 129 -420 129q-270 0 -423 -129t-153 -373zM867 1606l267 297h383l-418 -297 h-232z" />
<glyph unicode="&#xd4;" d="M108 716q0 342 234 540t671 198h-2q437 0 671 -198t234 -540t-234 -540t-670 -198t-670 198t-234 540zM438 717q0 -244 153 -373t423 -129h-1q269 0 420 129q152 129 152 373t-151 373q-152 129 -420 129q-270 0 -423 -129t-153 -373zM515 1608l324 297h344l323 -297 h-299l-196 172l-195 -172h-301z" />
<glyph unicode="&#xd5;" d="M108 716q0 342 234 540t671 198h-2q437 0 671 -198t234 -540t-234 -540t-670 -198t-670 198t-234 540zM438 717q0 -244 153 -373t423 -129h-1q269 0 420 129q152 129 152 373t-151 373q-152 129 -420 129q-270 0 -423 -129t-153 -373zM584 1861q46 39 95 57q47 18 107 16 q58 -2 99 -9q49 -9 110 -25q15 -2 53 -13q35 -10 50 -13q27 -5 42 -8q36 -6 45 -5q10 1 38 3q26 1 45 11q10 5 42 23q18 10 49 32l78 -207q-61 -49 -136 -64q-73 -15 -133 -7q-58 8 -150 33q-8 3 -51 13q-37 9 -51 12q-21 5 -43 8q-30 4 -45 3q-16 -2 -40 -3q-25 -1 -43 -9 q-18 -7 -42 -21q-22 -12 -49 -33l-69 209z" />
<glyph unicode="&#xd6;" d="M108 716q0 342 234 540t671 198h-2q437 0 671 -198t234 -540t-234 -540t-670 -198t-670 198t-234 540zM438 717q0 -244 153 -373t423 -129h-1q269 0 420 129q152 129 152 373t-151 373q-152 129 -420 129q-270 0 -423 -129t-153 -373zM569 1730q0 66 45 101q46 35 118 35 v-2q74 0 117 -36q44 -36 44 -99t-44 -99q-43 -36 -117 -36q-73 0 -118 36t-45 100zM1126 1728q0 66 45 101q46 35 118 35v-2q73 0 117 -36t44 -99t-44 -99t-117 -36t-118 36t-45 100z" />
<glyph unicode="&#xd7;" horiz-adv-x="1150" d="M80 418l311 295v8l-311 295l178 168l313 -295h9l313 295l178 -168l-311 -295v-8l311 -295l-178 -168l-313 295h-9l-313 -295z" />
<glyph unicode="&#xd8;" d="M108 713q0 342 234 540t671 198q313 0 528 -111l217 220l101 -101l-193 -192q252 -197 252 -552q0 -343 -234 -540q-233 -196 -670 -196l-1 -3q-315 0 -529 108l-219 -219l-98 100l192 195q-252 194 -251 553zM438 716q0 -217 129 -346l776 776q-130 70 -330 70h1 q-269 0 -423 -128q-153 -128 -153 -372zM681 285q130 -70 332 -70q269 0 420 129q152 129 152 373l-1 -1q0 218 -127 345z" />
<glyph unicode="&#xd9;" horiz-adv-x="2025" d="M178 667v766h334v-742q0 -238 132 -358t370 -120q236 0 366 121q131 122 131 358v742h336v-762q0 -329 -218 -511q-217 -181 -617 -181v-1q-398 0 -615 181q-217 182 -219 507zM498 1902h383l266 -297h-232z" />
<glyph unicode="&#xda;" horiz-adv-x="2025" d="M178 667v766h334v-742q0 -238 132 -358t370 -120q236 0 366 121q131 122 131 358v742h336v-762q0 -329 -218 -511q-217 -181 -617 -181v-1q-398 0 -615 181q-217 182 -219 507zM883 1605l266 297h383l-418 -297h-231z" />
<glyph unicode="&#xdb;" horiz-adv-x="2025" d="M178 667v766h334v-742q0 -238 132 -358t370 -120q236 0 366 121q131 122 131 358v742h336v-762q0 -329 -218 -511q-217 -181 -617 -181v-1q-398 0 -615 181q-217 182 -219 507zM516 1607l324 297h344l323 -297h-299l-196 172l-195 -172h-301z" />
<glyph unicode="&#xdc;" horiz-adv-x="2025" d="M178 667v766h334v-742q0 -238 132 -358t370 -120q236 0 366 121q131 122 131 358v742h336v-762q0 -329 -218 -511q-217 -181 -617 -181v-1q-398 0 -615 181q-217 182 -219 507zM571 1727q0 66 44 101t117 35v-2q74 0 117 -36q44 -36 44 -99t-44 -99q-43 -36 -117 -36 t-117 36q-44 36 -44 100zM1127 1729q0 67 45 101q46 35 118 35v-2q74 0 117 -36q44 -36 44 -99t-44 -99q-43 -36 -117 -36q-73 0 -118 36t-45 100z" />
<glyph unicode="&#xdd;" horiz-adv-x="1964" d="M27 1434h376l576 -656h8l574 656h376l-786 -910v-524h-336v524zM844 1606l266 297h383l-418 -297h-231z" />
<glyph unicode="&#xde;" horiz-adv-x="1929" d="M203 0v1434h336v-209h616q705 0 705 -502q0 -500 -705 -500h-616v-223h-336zM539 458h614q174 0 273 66t99 199q0 134 -99 200t-273 66l-614 -1v-530z" />
<glyph unicode="&#xdf;" d="M180 2v936q0 268 231 442t605 174q304 0 495 -109q192 -109 192 -315l-510 -268q0 -2 2 -10q354 31 551 -89t197 -331q0 -190 -171 -321q-170 -130 -517 -130q-106 0 -261 20q-150 19 -241 42v217q225 -61 408 -61q184 0 310 66t126 201q0 168 -198 236q-199 68 -585 17 l-2 135l555 311q0 86 -103 140q-104 54 -243 54q-234 0 -371 -124q-138 -125 -138 -336l2 -897h-334z" />
<glyph unicode="&#xe0;" horiz-adv-x="1654" d="M74 349q0 355 647 357q225 0 438 -68v22q0 220 -440 222q-152 0 -304 -34q-155 -34 -234 -75v258q68 29 252 56q186 27 325 27l-5 -1q361 0 548 -112q188 -113 188 -331v-670h-287l-22 143h-8q-164 -163 -528 -162q-270 0 -420 96t-150 272zM265 1588h383l267 -297h-232z M403 362q0 -89 89 -133q87 -43 228 -43q221 0 327 73q107 74 107 195v22q-170 58 -354 60q-397 0 -397 -174z" />
<glyph unicode="&#xe1;" horiz-adv-x="1654" d="M74 349q0 355 647 357q225 0 438 -68v22q0 220 -440 222q-152 0 -304 -34q-155 -34 -234 -75v258q68 29 252 56q186 27 325 27l-5 -1q361 0 548 -112q188 -113 188 -331v-670h-287l-22 143h-8q-164 -163 -528 -162q-270 0 -420 96t-150 272zM403 362q0 -89 89 -133 q87 -43 228 -43q221 0 327 73q107 74 107 195v22q-170 58 -354 60q-397 0 -397 -174zM634 1291l266 297h383l-418 -297h-231z" />
<glyph unicode="&#xe2;" horiz-adv-x="1654" d="M74 349q0 355 647 357q225 0 438 -68v22q0 220 -440 222q-152 0 -304 -34q-155 -34 -234 -75v258q68 29 252 56q186 27 325 27l-5 -1q361 0 548 -112q188 -113 188 -331v-670h-287l-22 143h-8q-164 -163 -528 -162q-270 0 -420 96t-150 272zM327 1293l323 297h344 l324 -297h-299l-197 172l-194 -172h-301zM403 362q0 -89 89 -133q87 -43 228 -43q221 0 327 73q107 74 107 195v22q-170 58 -354 60q-397 0 -397 -174z" />
<glyph unicode="&#xe3;" horiz-adv-x="1654" d="M74 349q0 355 647 357q225 0 438 -68v22q0 220 -440 222q-152 0 -304 -34q-155 -34 -234 -75v258q68 29 252 56q186 27 325 27l-5 -1q361 0 548 -112q188 -113 188 -331v-670h-287l-22 143h-8q-164 -163 -528 -162q-270 0 -420 96t-150 272zM394 1544q46 39 95 57t107 17 q58 -2 99 -9t111 -27q9 -1 52 -12q42 -10 51 -12q2 0 16 -3t26 -5q35 -6 45 -5q12 1 39 3q26 1 45 11q10 5 42 23q18 10 49 32l77 -207q-61 -49 -136 -64t-133 -6q-57 9 -151 33q-19 6 -51 14q-37 9 -51 12q-21 5 -43 8q-30 5 -44 3l-39 -3q-25 -1 -43 -9q-18 -7 -42 -21 t-49 -34l-70 209zM403 362q0 -89 89 -133q87 -43 228 -43q221 0 327 73q107 74 107 195v22q-170 58 -354 60q-397 0 -397 -174z" />
<glyph unicode="&#xe4;" horiz-adv-x="1654" d="M74 349q0 355 647 357q225 0 438 -68v22q0 220 -440 222q-152 0 -304 -34q-155 -34 -234 -75v258q68 29 252 56q186 27 325 27l-5 -1q361 0 548 -112q188 -113 188 -331v-670h-287l-22 143h-8q-164 -163 -528 -162q-270 0 -420 96t-150 272zM383 1415q0 66 44 101t117 35 v-1q74 0 117 -36q44 -36 44 -99t-44 -99q-43 -36 -117 -36t-117 36q-44 36 -44 99zM403 362q0 -89 89 -133q87 -43 228 -43q221 0 327 73q107 74 107 195v22q-170 58 -354 60q-397 0 -397 -174zM940 1414q0 66 44 101t117 35v-1q73 0 117 -36t44 -99t-44 -99t-117 -36 t-117 36t-44 99z" />
<glyph unicode="&#xe5;" horiz-adv-x="1654" d="M74 349q0 355 647 357q225 0 438 -68v22q0 220 -440 222q-152 0 -304 -34q-155 -34 -234 -75v258q68 29 252 56q186 27 325 27l-5 -1q361 0 548 -112q188 -113 188 -331v-670h-287l-22 143h-8q-164 -163 -528 -162q-270 0 -420 96t-150 272zM400 362q0 -89 89 -133 q87 -43 228 -43q221 0 327 73q107 74 107 195v22q-169 58 -354 60q-397 0 -397 -174zM512 1518q0 112 86 175q85 63 224 63h-2q138 0 224 -63t86 -175q0 -113 -86 -176t-223 -63t-223 63t-86 176zM690 1514q0 -56 36 -86t93 -30t93 30t36 86t-36 86t-93 30t-93 -30t-36 -86z " />
<glyph unicode="&#xe6;" horiz-adv-x="2744" d="M71 339q0 166 164 255q163 88 450 88q255 0 474 -80v31q0 124 -109 194q-110 71 -330 71q-152 0 -305 -33q-156 -34 -233 -73v237q65 29 250 56q188 27 327 27q485 0 618 -244h11q83 114 235 179q153 66 333 66q324 0 513 -150t189 -394l-6 -94h-1134q25 -151 155 -219 t363 -68q137 0 294 29q154 29 243 66v-221q-249 -86 -557 -86q-506 0 -680 282h-10q-79 -139 -254 -211q-174 -72 -381 -72q-271 0 -446 98q-174 97 -174 266zM390 350q0 -97 101 -150t237 -53q200 0 315 82q116 83 116 222v24q-162 66 -360 66q-179 0 -294 -45t-115 -146z M1544 608h795q-6 137 -112 213t-282 76q-158 0 -270 -79q-113 -80 -131 -210z" />
<glyph unicode="&#xe7;" horiz-adv-x="1531" d="M95 547q0 265 205 416q206 152 603 152q137 0 291 -22q158 -23 236 -60v-260q-78 51 -219 84t-271 33q-242 0 -375 -88q-134 -89 -134 -255q0 -164 137 -254q136 -90 375 -90q161 0 303 36q144 36 216 85l-3 -259q-156 -67 -450 -81l-217 -359h-197l156 363 q-323 28 -490 176q-166 147 -166 383z" />
<glyph unicode="&#xe8;" horiz-adv-x="1667" d="M97 544q0 257 201 413t539 156q342 0 543 -147t201 -401l-3 -114h-1130q31 -134 158 -193q125 -58 359 -58q135 0 290 30t246 69v-235q-102 -34 -285 -60q-179 -25 -334 -25q-370 0 -578 146q-207 145 -207 419zM322 1588h383l266 -297h-232zM448 629l785 -1 q-6 128 -112 198q-107 71 -288 71q-155 0 -261 -73t-124 -195z" />
<glyph unicode="&#xe9;" horiz-adv-x="1667" d="M97 544q0 257 201 413t539 156q342 0 543 -147t201 -401l-3 -114h-1130q31 -134 158 -193q125 -58 359 -58q135 0 290 30t246 69v-235q-102 -34 -285 -60q-179 -25 -334 -25q-370 0 -578 146q-207 145 -207 419zM448 629l785 -1q-6 128 -112 198q-107 71 -288 71 q-155 0 -261 -73t-124 -195zM680 1291l266 297h383l-418 -297h-231z" />
<glyph unicode="&#xea;" horiz-adv-x="1667" d="M97 544q0 257 201 413t539 156q342 0 543 -147t201 -401l-3 -114h-1130q31 -134 158 -193q125 -58 359 -58q135 0 290 30t246 69v-235q-102 -34 -285 -60q-179 -25 -334 -25q-370 0 -578 146q-207 145 -207 419zM334 1293l324 297h344l323 -297h-299l-196 172l-195 -172 h-301zM448 629l785 -1q-6 128 -112 198q-107 71 -288 71q-155 0 -261 -73t-124 -195z" />
<glyph unicode="&#xeb;" horiz-adv-x="1667" d="M97 544q0 257 201 413t539 156q342 0 543 -147t201 -401l-3 -114h-1130q31 -134 158 -193q125 -58 359 -58q135 0 290 30t246 69v-235q-102 -34 -285 -60q-179 -25 -334 -25q-370 0 -578 146q-207 145 -207 419zM390 1415q0 66 44 101t117 35v-1q73 0 117 -36t44 -99 t-44 -99t-117 -36t-117 36t-44 99zM448 629l785 -1q-6 128 -112 198q-107 71 -288 71q-155 0 -261 -73t-124 -195zM947 1414q0 66 44 101t117 35v-1q74 0 117 -36q44 -36 44 -99t-44 -99q-43 -36 -117 -36t-117 36q-44 36 -44 99z" />
<glyph unicode="&#xec;" horiz-adv-x="739" d="M-174 1591h383l266 -297h-231zM188 0v1090h330v-1090h-330z" />
<glyph unicode="&#xed;" horiz-adv-x="739" d="M188 0v1090h330v-1090h-330zM225 1294l267 297h382l-417 -297h-232z" />
<glyph unicode="&#xee;" horiz-adv-x="739" d="M-125 1296l324 297h344l323 -297h-299l-196 172l-195 -172h-301zM188 0v1090h330v-1090h-330z" />
<glyph unicode="&#xef;" horiz-adv-x="739" d="M-69 1418q0 66 44 101t117 35v-1q74 0 117 -36q44 -36 44 -99t-44 -99q-43 -36 -117 -36t-117 36q-44 36 -44 99zM188 0v1090h330v-1090h-330zM488 1417q0 66 44 101t117 35v-1q73 0 117 -36t44 -99t-44 -99t-117 -36t-117 36t-44 99z" />
<glyph unicode="&#xf0;" horiz-adv-x="1679" d="M73 509q2 220 177 344q176 125 474 125q156 0 291 -42t215 -122l8 4q-20 135 -111 240t-238 169l-320 -219l-61 84l248 166q0 3 -1 5t-1 5q-189 53 -411 41v241q375 18 669 -104l276 194l60 -83l-222 -154v-10q212 -113 327 -288t114 -378l-4 -5q-1 -359 -212 -556 q-210 -196 -567 -192q-142 0 -266 33t-225 96q-100 63 -160 168t-60 238zM364 510q0 -124 116 -207t318 -81q201 0 321 90t120 204q-1 123 -143 192q-141 69 -301 69l-1 -2q-190 0 -310 -66t-120 -199z" />
<glyph unicode="&#xf1;" horiz-adv-x="1853" d="M172 0v1090h297l18 -160h11q194 184 549 184h-1q303 0 474 -153t171 -411v-549h-334v549q0 164 -118 255q-119 92 -312 92q-192 0 -310 -92q-117 -91 -117 -252v-553h-328zM500 1547q46 39 95 57t107 17t99 -9q42 -8 110 -27q12 -2 53 -12q40 -10 50 -12q27 -5 42 -8 q36 -6 45 -5q10 1 38 3q26 1 45 11q10 5 42 23q18 10 49 32l78 -207q-61 -49 -136 -64t-133 -6t-150 33q-19 6 -51 14q-37 9 -51 12q-21 5 -43 8q-30 5 -45 3q-16 -2 -40 -3q-25 -1 -43 -9t-42 -21q-24 -14 -49 -34l-69 209z" />
<glyph unicode="&#xf2;" horiz-adv-x="1693" d="M97 551q0 260 202 413q203 153 546 153q347 0 548 -153t201 -415t-201 -415t-547 -153q-344 0 -546 153t-202 413zM329 1595h383l266 -297h-231zM430 547q0 -167 118 -258q119 -92 298 -92t298 92q118 91 118 258t-118 258t-298 91q-183 0 -299 -91q-117 -91 -117 -258z " />
<glyph unicode="&#xf3;" horiz-adv-x="1693" d="M97 551q0 260 202 413q203 153 546 153q347 0 548 -153t201 -415t-201 -415t-547 -153q-344 0 -546 153t-202 413zM430 547q0 -167 118 -258q119 -92 298 -92t298 92q118 91 118 258t-118 258t-298 91q-183 0 -299 -91q-117 -91 -117 -258zM720 1298l266 297h383 l-418 -297h-231z" />
<glyph unicode="&#xf4;" horiz-adv-x="1693" d="M97 551q0 260 202 413q203 153 546 153q347 0 548 -153t201 -415t-201 -415t-547 -153q-344 0 -546 153t-202 413zM349 1300l324 297h344l323 -297h-299l-196 172l-195 -172h-301zM430 547q0 -167 118 -258q119 -92 298 -92t298 92q118 91 118 258t-118 258t-298 91 q-183 0 -299 -91q-117 -91 -117 -258z" />
<glyph unicode="&#xf5;" horiz-adv-x="1693" d="M97 551q0 260 202 413q203 153 546 153q347 0 548 -153t201 -415t-201 -415t-547 -153q-344 0 -546 153t-202 413zM420 1551q46 39 95 57t107 17t99 -9t111 -27q9 -1 52 -12q40 -10 50 -12q27 -5 42 -8q36 -6 45 -5q10 1 38 3q26 1 45 11q10 5 42 23q18 10 49 32l78 -207 q-61 -49 -136 -64t-133 -6t-150 33q-19 6 -51 14q-37 9 -51 12q-21 5 -43 8q-30 5 -45 3q-16 -2 -40 -3q-25 -1 -43 -9t-42 -21q-26 -14 -48 -34l-70 209zM430 547q0 -167 118 -258q119 -92 298 -92t298 92q118 91 118 258t-118 258t-298 91q-183 0 -299 -91 q-117 -91 -117 -258z" />
<glyph unicode="&#xf6;" horiz-adv-x="1693" d="M97 551q0 260 202 413q203 153 546 153q347 0 548 -153t201 -415t-201 -415t-547 -153q-344 0 -546 153t-202 413zM405 1422q0 66 44 101t117 35v-1q74 0 117 -36q44 -36 44 -99t-44 -99q-43 -36 -117 -36t-117 36q-44 36 -44 99zM430 547q0 -167 118 -258 q119 -92 298 -92t298 92q118 91 118 258t-118 258t-298 91q-183 0 -299 -91q-117 -91 -117 -258zM962 1421q0 66 44 101t117 35v-1q73 0 117 -36t44 -99t-44 -99t-117 -36t-117 36t-44 99z" />
<glyph unicode="&#xf7;" horiz-adv-x="1472" d="M80 610v213h1313v-213h-1313zM524 1171q0 80 59 128t150 48l-2 -3q95 -2 153 -48q59 -47 59 -129q0 -80 -58 -126q-59 -47 -153 -47q-92 0 -150 48t-58 129zM526 265q0 79 59 126t150 47l-2 1q95 -1 153 -48q59 -47 59 -129q0 -80 -58 -126q-59 -47 -153 -47 q-91 0 -150 47q-58 46 -58 129z" />
<glyph unicode="&#xf8;" horiz-adv-x="1693" d="M95 545q0 262 202 415q203 153 549 153q214 0 395 -78l187 185l92 -93l-154 -153q227 -150 227 -428q0 -260 -201 -413t-545 -153q-213 0 -396 77l-187 -186l-94 92l156 156l-3 -2q-226 150 -228 428zM427 546q0 -140 94 -231l533 533q-105 45 -211 45v2q-180 0 -298 -91 t-118 -258zM635 242q103 -45 209 -45q180 0 298 91t118 258q-2 140 -96 228z" />
<glyph unicode="&#xf9;" horiz-adv-x="1853" d="M160 541v549h334v-549q0 -164 117 -254t314 -90q195 0 312 90t117 250v553h327v-1090h-297l-18 160h-10q-190 -180 -549 -180l-3 -1q-304 0 -474 152t-170 410zM386 1590h383l266 -297h-231z" />
<glyph unicode="&#xfa;" horiz-adv-x="1853" d="M160 541v549h334v-549q0 -164 117 -254t314 -90q195 0 312 90t117 250v553h327v-1090h-297l-18 160h-10q-190 -180 -549 -180l-3 -1q-304 0 -474 152t-170 410zM798 1293l266 297h383l-418 -297h-231z" />
<glyph unicode="&#xfb;" horiz-adv-x="1853" d="M160 541v549h334v-549q0 -164 117 -254t314 -90q195 0 312 90t117 250v553h327v-1090h-297l-18 160h-10q-190 -180 -549 -180l-3 -1q-304 0 -474 152t-170 410zM427 1295l324 297h344l323 -297h-299l-196 172l-195 -172h-301z" />
<glyph unicode="&#xfc;" horiz-adv-x="1853" d="M160 541v549h334v-549q0 -164 117 -254t314 -90q195 0 312 90t117 250v553h327v-1090h-297l-18 160h-10q-190 -180 -549 -180l-3 -1q-304 0 -474 152t-170 410zM483 1417q0 66 44 101t117 35v-1q74 0 117 -36q44 -36 44 -99t-44 -99q-43 -36 -117 -36t-117 36 q-44 36 -44 99zM1040 1416q0 66 44 101t117 35v-1q73 0 117 -36t44 -99t-44 -99t-117 -36t-117 36t-44 99z" />
<glyph unicode="&#xfd;" horiz-adv-x="1675" d="M33 1090h368l459 -754h10l404 754h368l-821 -1483h-336l226 428zM705 1294l266 297h383l-418 -297h-231z" />
<glyph unicode="&#xfe;" horiz-adv-x="1794" d="M170 -394v1888h328v-565h10q174 184 510 184q317 0 497 -153t180 -409q0 -257 -180 -414q-179 -157 -495 -157l-2 -1q-320 0 -510 184h-10v-557h-328zM501 548q0 -158 121 -255t306 -97q194 0 312 96q119 96 119 258t-117 253q-116 91 -312 91h-3q-186 0 -306 -93 t-120 -253z" />
<glyph unicode="&#xff;" horiz-adv-x="1675" d="M33 1090h368l459 -754h10l404 754h368l-821 -1483h-336l226 428zM398 1418q0 66 44 101t117 35v-1q73 0 117 -36t44 -99t-44 -99t-117 -36t-117 36t-44 99zM955 1417q0 66 44 101t117 35v-1q74 0 117 -36q44 -36 44 -99t-44 -99q-43 -36 -117 -36t-117 36q-44 36 -44 99z " />
<glyph unicode="&#x152;" horiz-adv-x="3375" d="M108 717q0 347 304 542t897 195q158 0 336 -20h1583v-238h-1268v-369h1114v-213h-1114v-376h1305l2 -238h-1614q-155 -20 -344 -20q-593 0 -897 195t-304 542zM440 717q0 -246 216 -374q217 -128 628 -128q196 0 340 43v916q-144 43 -340 43q-413 0 -628 -127 q-216 -128 -216 -373z" />
<glyph unicode="&#x153;" horiz-adv-x="2840" d="M97 550q0 258 198 411t519 153q207 0 362 -64q157 -65 245 -186h11q90 117 243 183t356 66q341 0 532 -145q192 -146 192 -399l1 -88h-1131q47 -289 513 -288q137 0 294 29q154 28 243 66v-224q-105 -35 -270 -59q-168 -24 -319 -24q-472 0 -657 245h-9 q-88 -117 -244 -181q-155 -64 -361 -64q-321 0 -520 155q-198 154 -198 414zM429 549q0 -166 118 -259t298 -93q179 0 298 93q118 93 118 259q0 164 -118 255q-119 92 -298 92t-298 -92q-118 -91 -118 -255zM1623 616h813q-6 139 -114 214t-297 75q-161 0 -270 -78 q-110 -78 -132 -211z" />
<glyph unicode="&#x178;" horiz-adv-x="1964" d="M27 1434h376l576 -656h8l574 656h376l-786 -910v-524h-336v524zM541 1761q0 66 44 101t117 35v-1q74 0 117 -36q44 -36 44 -99t-44 -99q-43 -36 -117 -36t-117 36q-44 36 -44 99zM1098 1762q0 66 44 101t117 35v-1q73 0 117 -36t44 -99t-44 -99t-117 -36t-117 36t-44 99z " />
<glyph unicode="&#x2c6;" horiz-adv-x="1150" d="M80 1296l323 297h345l323 -297h-299l-197 172l-194 -172h-301z" />
<glyph unicode="&#x2dc;" horiz-adv-x="1009" d="M79 1547q46 39 95 57t107 17q59 -1 99 -9t111 -27q9 -1 52 -12q40 -10 50 -12q27 -5 42 -8q36 -6 45 -5q10 1 38 3q26 1 45 11q10 5 42 23q18 10 49 32l78 -207q-61 -49 -136 -64t-133 -6q-59 9 -150 33q-19 6 -51 14q-38 9 -51 12q-21 5 -43 8q-30 5 -45 3 q-16 -2 -40 -3q-25 -1 -43 -9t-42 -21q-26 -14 -48 -34l-70 209z" />
<glyph unicode="&#x2000;" horiz-adv-x="1034" />
<glyph unicode="&#x2001;" horiz-adv-x="2068" />
<glyph unicode="&#x2002;" horiz-adv-x="1034" />
<glyph unicode="&#x2003;" horiz-adv-x="2068" />
<glyph unicode="&#x2004;" horiz-adv-x="689" />
<glyph unicode="&#x2005;" horiz-adv-x="517" />
<glyph unicode="&#x2006;" horiz-adv-x="344" />
<glyph unicode="&#x2007;" horiz-adv-x="344" />
<glyph unicode="&#x2008;" horiz-adv-x="258" />
<glyph unicode="&#x2009;" horiz-adv-x="413" />
<glyph unicode="&#x200a;" horiz-adv-x="114" />
<glyph unicode="&#x2010;" horiz-adv-x="1241" d="M80 598v238h1081v-238h-1081z" />
<glyph unicode="&#x2011;" horiz-adv-x="1241" d="M80 598v238h1081v-238h-1081z" />
<glyph unicode="&#x2012;" horiz-adv-x="1241" d="M80 598v238h1081v-238h-1081z" />
<glyph unicode="&#x2013;" horiz-adv-x="1282" d="M80 598v238h1122v-238h-1122z" />
<glyph unicode="&#x2014;" horiz-adv-x="1282" d="M80 598v238h1122v-238h-1122z" />
<glyph unicode="&#x2018;" horiz-adv-x="571" d="M79 1060q2 130 81 242q80 113 168 152l98 -117q-45 -25 -75 -57q-29 -31 -37 -51l-8 -19q78 0 131 -49q54 -49 54 -127q0 -82 -57 -130t-147 -48l-2 -2q-91 0 -149 56q-57 56 -57 150z" />
<glyph unicode="&#x2019;" horiz-adv-x="571" d="M81 1276q0 82 57 130t147 48l1 -1q93 0 149 -55q57 -56 57 -150q-1 -128 -81 -241q-79 -112 -168 -151l-99 117q44 25 76 57t39 51l6 19q-77 0 -130 49q-54 49 -54 127z" />
<glyph unicode="&#x201a;" horiz-adv-x="571" d="M81 156q0 82 57 130t147 48l1 -2q93 0 149 -55q57 -55 57 -150q-1 -128 -81 -241q-79 -112 -168 -151l-99 117q44 25 76 57q31 31 39 50l6 21q-77 0 -130 49q-54 49 -54 127z" />
<glyph unicode="&#x201c;" horiz-adv-x="1114" d="M76 1058q2 130 81 242q80 113 168 152l98 -117q-45 -25 -75 -57q-29 -31 -37 -51l-8 -19q78 0 131 -49q54 -49 54 -127q0 -82 -57 -130t-147 -48l-2 -2q-91 0 -149 56q-57 56 -57 150zM623 1060q0 129 80 242t170 152l97 -117q-45 -25 -75 -57t-36 -51l-8 -19 q77 0 129 -49q53 -50 53 -127q0 -82 -57 -130t-147 -48l-3 -2q-91 0 -147 56t-56 150z" />
<glyph unicode="&#x201d;" horiz-adv-x="1114" d="M81 1276q0 82 57 130t147 48l1 -1q92 0 147 -55q56 -56 56 -150q0 -129 -79 -241t-169 -151l-97 117q45 25 75 57t36 51l8 19q-77 0 -129 49q-53 50 -53 127zM624 1275q0 82 57 130t147 48v-1q93 0 149 -55q57 -55 57 -150q-1 -128 -81 -241q-79 -112 -168 -151l-98 117 q44 25 76 57q31 31 37 51l8 19q-77 0 -130 49q-54 50 -54 127z" />
<glyph unicode="&#x201e;" horiz-adv-x="1114" d="M81 156q0 82 57 130t147 48l1 -2q92 0 147 -55q56 -56 56 -150q0 -129 -79 -241t-169 -151l-97 117q45 26 75 57t36 50l8 21q-77 0 -129 49q-53 50 -53 127zM624 154q0 82 57 130t147 48v-2q93 0 149 -55q57 -55 57 -150q-1 -128 -81 -241q-79 -112 -168 -151l-98 117 q44 25 76 57q31 31 37 50l8 21q-77 0 -130 49q-54 50 -54 127z" />
<glyph unicode="&#x2022;" horiz-adv-x="571" d="M81 717q0 84 57 138t147 54h-1q90 0 149 -54t59 -138t-58 -138t-148 -54q-88 0 -147 54q-58 54 -58 138z" />
<glyph unicode="&#x2026;" horiz-adv-x="1779" d="M81 158q0 82 57 130t147 48q92 0 149 -48t57 -130t-57 -130t-149 -48q-90 0 -147 48t-57 130zM685 158q0 82 57 130t147 48q92 0 149 -48t57 -130t-57 -130t-149 -48q-90 0 -147 48t-57 130zM1289 158q0 82 57 130t147 48q92 0 149 -48t57 -130t-57 -130t-149 -48 q-90 0 -147 48t-57 130z" />
<glyph unicode="&#x202f;" horiz-adv-x="413" />
<glyph unicode="&#x2039;" horiz-adv-x="886" d="M80 717l440 553h287l-445 -549v-8l445 -549h-287z" />
<glyph unicode="&#x203a;" horiz-adv-x="886" d="M80 164l444 549v8l-444 549h287l440 -553l-440 -553h-287z" />
<glyph unicode="&#x205f;" horiz-adv-x="517" />
<glyph unicode="&#x20ac;" horiz-adv-x="2150" d="M78 508v135h297q-8 64 -2 135h-295v133h317q71 257 324 399q254 143 672 143q178 0 355 -36t294 -93v-291q-82 79 -261 132q-180 53 -363 53q-240 0 -411 -78q-170 -78 -241 -228h850v-133h-901q-10 -66 2 -135h899v-135h-852q72 -145 244 -220t411 -75q193 0 381 56 q187 56 269 144l3 -295q-115 -61 -306 -100q-189 -39 -373 -39l-2 -2q-417 0 -668 139q-252 140 -324 391h-319z" />
<glyph unicode="&#x2122;" horiz-adv-x="1572" d="M45 1319v115h625v-115h-230v-377h-166v377h-229zM745 942v492h213l175 -314h10l174 314h211v-492h-158v307h-10l-172 -307h-101l-172 307h-10v-307h-160z" />
<glyph unicode="&#x25fc;" horiz-adv-x="1090" d="M0 0v1090h1090v-1090h-1090z" />
<glyph unicode="&#xfb01;" horiz-adv-x="2058" d="M22 881v209h362v45q0 215 183 317t510 102q163 0 231 -6v-227q-55 4 -186 4h-3q-106 0 -165 -7q-63 -8 -123 -30q-61 -23 -89 -72q-28 -50 -30 -126h596v-209h-596l2 -881h-330v881h-362zM1461 1436q0 76 56 126q55 49 152 49t152 -49q56 -50 56 -126h-4q0 -74 -55 -123 t-151 -49t-151 49t-55 123zM1504 0v1090h330v-1090h-330z" />
<glyph unicode="&#xfb02;" horiz-adv-x="2002" d="M22 881v209h362v45q0 215 183 317t510 102q163 0 231 -6v-227q-55 4 -186 4h-3q-106 0 -165 -7q-63 -8 -123 -30q-61 -23 -89 -72q-28 -50 -30 -126h596v-209h-596l2 -881h-330v881h-362zM1494 0v1495h328v-1495h-328z" />
</font>
</defs>
</svg>
